<?xml version="1.0" encoding="utf-8"?>
<!-- Generator: Adobe Illustrator 27.5.0, SVG Export Plug-In . SVG Version: 6.00 Build 0)  -->
<svg version="1.1" xmlns="http://www.w3.org/2000/svg" xmlns:xlink="http://www.w3.org/1999/xlink" x="0px" y="0px"
	 viewBox="0 0 3710 3710" style="enable-background:new 0 0 3710 3710;" xml:space="preserve">
<g id="Background">
	<g>
		<g>
			<rect style="fill:#FFFFFF;" width="3710" height="3710"/>
		</g>
	</g>
</g>
<g id="Illustration">
	<g>
		<linearGradient id="SVGID_1_" gradientUnits="userSpaceOnUse" x1="3413.5696" y1="3607.4265" x2="1360.0458" y2="1390.9243">
			<stop  offset="0" style="stop-color:#DAE3FE"/>
			<stop  offset="1" style="stop-color:#E9EFFD"/>
		</linearGradient>
		<path style="fill:url(#SVGID_1_);" d="M3133.003,2342.287c-283.439,656.962-1031.628,939.142-1617.845,891.03
			c-160.061-13.136-482.108-39.568-733.565-275.372c-482.905-452.847-408.533-1399.422,53.745-1956.714
			c59.532-71.768,471.604-552.603,1113.74-546.167c470.137,4.712,800.122,268.064,840.247,300.873
			c50.688,41.446,162.487,139.935,263.244,296.181C3289.314,1419.243,3310.125,1931.751,3133.003,2342.287z"/>
		<g>
			<path style="fill:#FFFFFF;" d="M2731.411,2849.866l5.74-4.086c1.779-1.267,2.211-3.758,0.963-5.565
				c-1.247-1.807-3.7-2.245-5.479-0.978l-0.016,0.011l-0.069,0.049l-5.583,4.016l-0.069,0.05c-1.765,1.27-2.182,3.752-0.931,5.545
				C2727.217,2850.701,2729.646,2851.136,2731.411,2849.866z"/>
			<path style="fill:#FFFFFF;" d="M2750.186,2835.783l5.435-4.481c1.711-1.411,1.972-3.964,0.583-5.701s-3.903-2.003-5.614-0.592
				l-0.015,0.012l-0.065,0.054l-5.283,4.401l-0.065,0.054c-1.697,1.414-1.944,3.957-0.553,5.68
				C2746,2836.933,2748.489,2837.196,2750.186,2835.783z"/>
			<path style="fill:#FFFFFF;" d="M2767.934,2820.403l5.115-4.854c1.634-1.551,1.72-4.152,0.193-5.812
				c-1.526-1.659-4.089-1.747-5.722-0.196l-0.014,0.014l-0.061,0.058l-4.969,4.763l-0.061,0.058
				c-1.62,1.552-1.693,4.143-0.165,5.788C2763.778,2821.866,2766.315,2821.955,2767.934,2820.403z"/>
			<path style="fill:#FFFFFF;" d="M2784.591,2803.808l4.773-5.202c1.546-1.685,1.454-4.324-0.205-5.894
				c-1.659-1.57-4.257-1.477-5.803,0.208l-0.014,0.015l-0.058,0.063l-4.632,5.1l-0.058,0.063c-1.531,1.686-1.427,4.313,0.233,5.867
				C2780.487,2805.584,2783.06,2805.493,2784.591,2803.808z"/>
			<path style="fill:#FFFFFF;" d="M2800.081,2786.081l4.408-5.527c1.447-1.814,1.172-4.477-0.615-5.947
				c-1.786-1.469-4.408-1.19-5.855,0.624l-0.013,0.017l-0.054,0.068l-4.273,5.412l-0.054,0.069
				c-1.432,1.814-1.145,4.464,0.641,5.919C2796.053,2788.17,2798.649,2787.895,2800.081,2786.081z"/>
			<path style="fill:#FFFFFF;" d="M2814.328,2767.301l4.019-5.827c1.337-1.939,0.874-4.612-1.036-5.97
				c-1.909-1.358-4.541-0.887-5.879,1.052l-0.012,0.018l-0.051,0.074l-3.889,5.699l-0.051,0.074
				c-1.322,1.938-0.848,4.597,1.061,5.94S2813.006,2769.239,2814.328,2767.301z"/>
			<path style="fill:#FFFFFF;" d="M2827.247,2747.546l3.604-6.104c1.215-2.058,0.557-4.727-1.469-5.96
				c-2.026-1.234-4.654-0.566-5.869,1.492l-0.011,0.019l-0.047,0.08l-3.48,5.962l-0.047,0.08c-1.2,2.055-0.531,4.71,1.493,5.928
				C2823.445,2750.262,2826.047,2749.602,2827.247,2747.546z"/>
			<path style="fill:#FFFFFF;" d="M2838.75,2726.895l3.16-6.357c1.079-2.17,0.221-4.819-1.916-5.914s-4.744-0.225-5.824,1.946
				l-0.01,0.02l-0.042,0.087l-3.044,6.199l-0.043,0.087c-1.064,2.167-0.197,4.8,1.937,5.881
				C2835.102,2729.924,2837.686,2729.063,2838.75,2726.895z"/>
			<path style="fill:#FFFFFF;" d="M2848.74,2705.434l2.688-6.585c0.929-2.276-0.135-4.886-2.375-5.829
				c-2.241-0.944-4.811,0.136-5.74,2.413l-0.008,0.021l-0.037,0.094l-2.581,6.411l-0.038,0.094
				c-0.914,2.271,0.158,4.865,2.394,5.794C2845.28,2708.774,2847.826,2707.706,2848.74,2705.434z"/>
			<path style="fill:#FFFFFF;" d="M2857.116,2683.259l2.18-6.771c0.764-2.372-0.51-4.924-2.846-5.7
				c-2.336-0.776-4.849,0.518-5.613,2.89l-0.007,0.022l-0.032,0.101l-2.084,6.581l-0.031,0.101c-0.75,2.367,0.532,4.902,2.863,5.663
				C2853.877,2686.906,2856.366,2685.625,2857.116,2683.259z"/>
			<path style="fill:#FFFFFF;" d="M2863.772,2660.477l1.647-6.936c0.583-2.458-0.906-4.93-3.326-5.523
				c-2.42-0.593-4.855,0.92-5.438,3.377l-0.006,0.022l-0.025,0.108l-1.563,6.729l-0.025,0.108c-0.569,2.451,0.926,4.906,3.339,5.485
				C2860.791,2664.425,2863.204,2662.929,2863.772,2660.477z"/>
			<path style="fill:#FFFFFF;" d="M2868.609,2637.205l1.08-7.044c0.388-2.53-1.317-4.9-3.808-5.293
				c-2.491-0.394-4.824,1.338-5.212,3.867l-0.003,0.023l-0.017,0.115l-1.011,6.821l-0.017,0.114
				c-0.374,2.522,1.336,4.875,3.819,5.254C2865.923,2641.441,2868.236,2639.727,2868.609,2637.205z"/>
			<path style="fill:#FFFFFF;" d="M2871.528,2613.61l0.49-7.13c0.178-2.586-1.743-4.829-4.289-5.01
				c-2.546-0.18-4.754,1.77-4.932,4.356l-0.002,0.023l-0.008,0.122l-0.44,6.889l-0.008,0.121c-0.164,2.577,1.76,4.802,4.298,4.969
				C2869.174,2618.117,2871.363,2616.187,2871.528,2613.61z"/>
			<path style="fill:#FFFFFF;" d="M2872.421,2589.794l-0.146-7.15c-0.053-2.624-2.191-4.707-4.775-4.653
				c-2.584,0.054-4.635,2.225-4.581,4.849l0,0.024l0.003,0.127l0.174,6.895l0.004,0.128c0.066,2.614,2.206,4.678,4.78,4.611
				C2870.453,2594.557,2872.487,2592.408,2872.421,2589.794z"/>
			<path style="fill:#FFFFFF;" d="M2871.205,2565.994l-0.767-7.107c-0.285-2.641-2.624-4.547-5.225-4.258
				c-2.6,0.289-4.477,2.665-4.192,5.306l0.003,0.024l0.014,0.125l0.773,6.854l0.014,0.125c0.297,2.63,2.636,4.517,5.226,4.216
				C2869.641,2570.976,2871.501,2568.623,2871.205,2565.994z"/>
			<path style="fill:#FFFFFF;" d="M2867.942,2542.398l-1.368-7.013c-0.515-2.637-3.037-4.352-5.635-3.83
				c-2.597,0.522-4.285,3.084-3.771,5.722l0.005,0.024l0.024,0.122l1.354,6.761l0.024,0.122c0.526,2.626,3.047,4.321,5.632,3.788
				C2866.793,2547.56,2868.468,2545.023,2867.942,2542.398z"/>
			<path style="fill:#FFFFFF;" d="M2862.698,2519.174l-1.951-6.869c-0.742-2.615-3.431-4.123-6.006-3.369
				c-2.574,0.754-4.059,3.484-3.317,6.099l0.007,0.023l0.035,0.12l1.914,6.62l0.035,0.12c0.753,2.601,3.439,4.09,6,3.326
				C2861.977,2524.48,2863.451,2521.776,2862.698,2519.174z"/>
			<path style="fill:#FFFFFF;" d="M2855.531,2496.485l-2.517-6.678c-0.969-2.572-3.807-3.858-6.339-2.874
				c-2.532,0.984-3.798,3.866-2.83,6.438l0.009,0.023l0.045,0.118l2.46,6.429l0.045,0.119c0.978,2.557,3.813,3.824,6.331,2.831
				C2855.252,2501.897,2856.509,2499.042,2855.531,2496.485z"/>
			<path style="fill:#FFFFFF;" d="M2846.49,2474.488l-3.07-6.439c-1.196-2.507-4.166-3.555-6.634-2.341
				c-2.469,1.214-3.501,4.23-2.305,6.737l0.011,0.022l0.056,0.116l2.989,6.19l0.057,0.117c1.203,2.492,4.167,3.521,6.622,2.3
				C2846.669,2479.968,2847.693,2476.98,2846.49,2474.488z"/>
			<path style="fill:#FFFFFF;" d="M2835.621,2453.349l-3.611-6.148c-1.421-2.419-4.505-3.211-6.887-1.768
				c-2.383,1.443-3.162,4.575-1.741,6.994l0.013,0.022l0.068,0.115l3.505,5.9l0.068,0.115c1.428,2.404,4.505,3.177,6.872,1.727
				C2836.274,2458.856,2837.049,2455.754,2835.621,2453.349z"/>
			<path style="fill:#FFFFFF;" d="M2822.964,2433.244l-4.145-5.81c-1.646-2.308-4.823-2.823-7.095-1.151
				c-2.272,1.672-2.78,4.898-1.134,7.205l0.015,0.021l0.082,0.113l4.01,5.563l0.082,0.113c1.652,2.291,4.82,2.789,7.076,1.111
				C2824.111,2438.732,2824.616,2435.535,2822.964,2433.244z"/>
			<path style="fill:#FFFFFF;" d="M2808.556,2414.351l-4.648-5.392c-1.869-2.168-5.115-2.386-7.25-0.488
				c-2.135,1.898-2.35,5.195-0.481,7.363l0.017,0.02l0.095,0.11l4.483,5.148l0.096,0.11c1.873,2.151,5.109,2.353,7.228,0.45
				C2810.214,2419.769,2810.429,2416.502,2808.556,2414.351z"/>
			<path style="fill:#FFFFFF;" d="M2792.472,2396.901l-5.144-4.924c-2.088-1.999-5.375-1.9-7.343,0.22
				c-1.968,2.12-1.871,5.459,0.217,7.458l0.019,0.018l0.111,0.105l4.945,4.688l0.111,0.105c2.091,1.981,5.367,1.867,7.318-0.257
				C2794.657,2402.192,2794.562,2398.883,2792.472,2396.901z"/>
			<path style="fill:#FFFFFF;" d="M2774.776,2381.098l-5.606-4.385c-2.298-1.798-5.596-1.362-7.366,0.971
				c-1.77,2.334-1.342,5.684,0.956,7.481l0.021,0.016l0.127,0.098l5.374,4.16l0.127,0.098c2.299,1.78,5.584,1.33,7.337-1.005
				C2777.498,2386.198,2777.075,2382.878,2774.776,2381.098z"/>
			<path style="fill:#FFFFFF;" d="M2755.582,2367.171l-6.024-3.775c-2.495-1.564-5.767-0.778-7.308,1.756
				c-1.54,2.534-0.765,5.857,1.73,7.421l0.022,0.014l0.143,0.088l5.758,3.568l0.143,0.088c2.495,1.547,5.751,0.746,7.274-1.787
				C2758.842,2372.011,2758.076,2368.717,2755.582,2367.171z"/>
			<path style="fill:#FFFFFF;" d="M2735.074,2355.338l-6.364-3.134c-2.668-1.314-5.878-0.183-7.172,2.526
				c-1.293,2.709-0.179,5.969,2.488,7.283l0.024,0.012l0.14,0.068l6.097,2.965l0.142,0.069c2.665,1.296,5.859,0.152,7.135-2.554
				S2737.739,2356.634,2735.074,2355.338z"/>
			<path style="fill:#FFFFFF;" d="M2713.541,2345.624l-6.62-2.507c-2.807-1.063-5.931,0.386-6.978,3.237
				c-1.047,2.851,0.38,6.024,3.187,7.087l0.025,0.01l0.139,0.052l6.353,2.369l0.14,0.052c2.803,1.046,5.91-0.414,6.94-3.261
				C2717.756,2349.815,2716.344,2346.669,2713.541,2345.624z"/>
			<path style="fill:#FFFFFF;" d="M2691.24,2337.98l-6.803-1.901c-2.919-0.815-5.937,0.927-6.74,3.891
				c-0.803,2.965,0.913,6.029,3.832,6.845l0.026,0.007l0.135,0.037l6.542,1.792l0.136,0.037c2.914,0.798,5.913-0.953,6.699-3.913
				C2695.853,2341.817,2694.155,2338.778,2691.24,2337.98z"/>
			<path style="fill:#FFFFFF;" d="M2668.399,2332.341l-6.927-1.316c-2.993-0.569-5.873,1.434-6.433,4.473
				c-0.56,3.039,1.412,5.964,4.405,6.533l0.013,0.002l0.128,0.024l6.673,1.251l0.129,0.024c2.989,0.56,5.86-1.446,6.412-4.483
				C2673.352,2335.815,2671.389,2332.902,2668.399,2332.341z"/>
			<path style="fill:#FFFFFF;" d="M2645.215,2328.592l-6.996-0.777c-3.042-0.337-5.778,1.893-6.11,4.983
				c-0.333,3.089,1.864,5.867,4.906,6.205l0.013,0.002l0.121,0.013l6.756,0.733l0.122,0.013c3.038,0.33,5.764-1.904,6.088-4.99
				C2650.44,2331.688,2648.253,2328.921,2645.215,2328.592z"/>
			<path style="fill:#FFFFFF;" d="M2621.848,2326.601l-7.028-0.272c-3.073-0.119-5.66,2.315-5.777,5.436
				c-0.117,3.121,2.279,5.748,5.353,5.867l0.013,0l0.114,0.004l6.8,0.246l0.115,0.004c3.069,0.111,5.645-2.325,5.755-5.442
				C2627.303,2329.328,2624.917,2326.712,2621.848,2326.601z"/>
			<path style="fill:#FFFFFF;" d="M2598.424,2326.252l-7.021,0.2c-3.09,0.088-5.524,2.703-5.438,5.841
				c0.087,3.138,2.662,5.611,5.752,5.523l0.014-0.001l0.107-0.003l6.806-0.211l0.108-0.003c3.085-0.095,5.51-2.713,5.416-5.845
				C2604.073,2328.62,2601.509,2326.157,2598.424,2326.252z"/>
			<path style="fill:#FFFFFF;" d="M2575.048,2327.442l-7.001,0.644c-3.094,0.285-5.375,3.063-5.095,6.205
				c0.281,3.142,3.015,5.459,6.11,5.174l0.013-0.001l0.102-0.01l6.795-0.642l0.103-0.01c3.089-0.292,5.359-3.071,5.072-6.208
				C2580.86,2329.458,2578.137,2327.15,2575.048,2327.442z"/>
			<path style="fill:#FFFFFF;" d="M2551.792,2330.082l-6.927,1.057c-3.088,0.471-5.214,3.395-4.75,6.531
				c0.464,3.136,3.343,5.296,6.43,4.824l0.014-0.002l0.089-0.014l6.744-1.046l0.091-0.014c3.082-0.478,5.198-3.402,4.728-6.532
				C2557.74,2331.756,2554.874,2329.604,2551.792,2330.082z"/>
			<path style="fill:#FFFFFF;" d="M2528.774,2334.036l-6.86,1.417c-3.074,0.635-5.06,3.681-4.436,6.804
				c0.625,3.123,3.625,5.139,6.7,4.504l0.014-0.002l0.081-0.017l6.693-1.399l0.082-0.018c3.069-0.641,5.044-3.688,4.412-6.804
				C2534.829,2335.403,2531.842,2333.394,2528.774,2334.036z"/>
			<path style="fill:#FFFFFF;" d="M2506,2339.139l-6.779,1.734c-3.058,0.783-4.912,3.934-4.142,7.04
				c0.771,3.105,3.874,4.989,6.931,4.206l0.013-0.003l0.072-0.019l6.631-1.714l0.073-0.019c3.051-0.789,4.895-3.94,4.118-7.039
				C2512.141,2340.227,2509.051,2338.35,2506,2339.139z"/>
			<path style="fill:#FFFFFF;" d="M2483.5,2345.256l-6.695,2.012c-3.038,0.913-4.773,4.155-3.874,7.241
				c0.899,3.086,4.092,4.847,7.13,3.934l0.014-0.004l0.062-0.019l6.565-1.99l0.064-0.019c3.032-0.919,4.756-4.161,3.851-7.24
				C2489.71,2346.091,2486.531,2344.336,2483.5,2345.256z"/>
			<path style="fill:#FFFFFF;" d="M2461.279,2352.249l-6.604,2.246c-3.019,1.027-4.648,4.345-3.636,7.412
				c1.011,3.066,4.279,4.72,7.298,3.693l0.013-0.004l0.053-0.018l6.491-2.225l0.054-0.018c3.012-1.033,4.63-4.35,3.613-7.409
				C2467.545,2352.863,2464.292,2351.216,2461.279,2352.249z"/>
			<path style="fill:#FFFFFF;" d="M2439.34,2359.982l-6.533,2.446c-3.002,1.124-4.539,4.507-3.432,7.556
				c1.107,3.049,4.438,4.609,7.44,3.485l0.014-0.004l0.044-0.017l6.438-2.428l0.045-0.017c2.995-1.13,4.521-4.511,3.409-7.553
				C2445.651,2360.407,2442.335,2358.852,2439.34,2359.982z"/>
			<path style="fill:#FFFFFF;" d="M2417.641,2368.335l-6.468,2.609c-2.988,1.206-4.448,4.643-3.261,7.678
				c1.187,3.035,4.572,4.517,7.56,3.312l0.013-0.005l0.036-0.015l6.389-2.596l0.037-0.015c2.981-1.211,4.431-4.647,3.238-7.675
				C2423.992,2368.602,2420.622,2367.124,2417.641,2368.335z"/>
			<path style="fill:#FFFFFF;" d="M2396.152,2377.189l-6.409,2.736c-2.978,1.271-4.378,4.754-3.126,7.779
				c1.252,3.025,4.681,4.446,7.66,3.175l0.014-0.006l0.027-0.011l6.347-2.728l0.028-0.012c2.971-1.277,4.361-4.758,3.103-7.775
				C2402.538,2377.329,2399.123,2375.912,2396.152,2377.189z"/>
			<path style="fill:#FFFFFF;" d="M2374.852,2386.422l-6.357,2.826c-2.974,1.322-4.329,4.842-3.027,7.862s4.768,4.396,7.742,3.075
				l0.013-0.006l0.019-0.009l6.311-2.824l0.02-0.009c2.967-1.327,4.311-4.846,3.004-7.858
				C2381.27,2386.467,2377.819,2385.094,2374.852,2386.422z"/>
			<path style="fill:#FFFFFF;" d="M2353.708,2395.92l-6.322,2.891c-2.974,1.36-4.299,4.911-2.96,7.932
				c1.339,3.02,4.835,4.367,7.81,3.006l0.013-0.006l0.015-0.007l6.283-2.892l0.016-0.007c2.967-1.365,4.282-4.915,2.938-7.927
				C2360.157,2395.896,2356.675,2394.555,2353.708,2395.92z"/>
			<path style="fill:#FFFFFF;" d="M2332.671,2405.625l-6.294,2.949c-2.976,1.395-4.275,4.975-2.902,7.997s4.899,4.342,7.874,2.948
				l0.014-0.006l0.014-0.007l6.258-2.95l0.014-0.007c2.969-1.4,4.258-4.978,2.879-7.993
				C2339.149,2405.541,2335.639,2404.225,2332.671,2405.625z"/>
			<path style="fill:#FFFFFF;" d="M2311.725,2415.516l-6.267,3c-2.978,1.426-4.255,5.034-2.851,8.059
				c1.404,3.025,4.957,4.321,7.935,2.895l0.014-0.006l0.012-0.006l6.235-3.004l0.012-0.006c2.971-1.431,4.237-5.037,2.827-8.054
				S2314.696,2414.084,2311.725,2415.516z"/>
			<path style="fill:#FFFFFF;" d="M2290.861,2425.572l-6.244,3.046c-2.982,1.455-4.238,5.09-2.805,8.118
				c1.433,3.028,5.011,4.304,7.993,2.849l0.014-0.006l0.01-0.006l6.215-3.051l0.011-0.005c2.974-1.46,4.22-5.093,2.782-8.114
				C2297.4,2425.383,2293.836,2424.112,2290.861,2425.572z"/>
			<path style="fill:#FFFFFF;" d="M2270.073,2435.774l-6.224,3.086c-2.987,1.481-4.226,5.141-2.767,8.174
				c1.458,3.033,5.062,4.292,8.049,2.811l0.022-0.011l6.197-3.092c2.982-1.481,4.217-5.136,2.758-8.164
				C2276.65,2435.549,2273.054,2434.293,2270.073,2435.774z"/>
			<path style="fill:#FFFFFF;" d="M2249.348,2446.103l-6.206,3.12c-2.993,1.504-4.218,5.188-2.736,8.228
				c1.482,3.039,5.109,4.283,8.102,2.779l0.021-0.01l6.182-3.127c2.987-1.506,4.207-5.185,2.725-8.219
				C2255.953,2445.839,2252.335,2444.598,2249.348,2446.103z"/>
			<path style="fill:#FFFFFF;" d="M2228.68,2456.538l-6.191,3.148c-3,1.525-4.214,5.232-2.712,8.278
				c1.501,3.047,5.151,4.28,8.151,2.754l0.02-0.01l6.171-3.157c2.994-1.527,4.202-5.229,2.698-8.27
				C2235.313,2456.241,2231.674,2455.011,2228.68,2456.538z"/>
			<path style="fill:#FFFFFF;" d="M2208.057,2467.06l-6.178,3.17c-3.009,1.544-4.215,5.272-2.695,8.327
				c1.52,3.055,5.19,4.281,8.199,2.737l0.018-0.01l6.161-3.181c3.002-1.546,4.201-5.27,2.679-8.319
				C2214.719,2466.736,2211.059,2465.514,2208.057,2467.06z"/>
			<path style="fill:#FFFFFF;" d="M2187.472,2477.648l-6.17,3.187c-3.018,1.559-4.22,5.307-2.686,8.372
				c1.535,3.065,5.226,4.286,8.244,2.727l0.017-0.009l6.155-3.198c3.011-1.562,4.205-5.307,2.667-8.365
				C2194.161,2477.304,2190.483,2476.086,2187.472,2477.648z"/>
			<path style="fill:#FFFFFF;" d="M2166.915,2488.284l-6.163,3.197c-3.029,1.571-4.231,5.339-2.683,8.415
				c1.547,3.076,5.257,4.296,8.286,2.725l0.015-0.008l6.152-3.21c3.021-1.575,4.214-5.34,2.662-8.409
				C2173.633,2487.925,2169.936,2486.709,2166.915,2488.284z"/>
			<path style="fill:#FFFFFF;" d="M2146.376,2498.947l-6.159,3.201c-3.042,1.581-4.246,5.366-2.689,8.456
				c1.556,3.089,5.284,4.312,8.326,2.731l0.014-0.007l6.151-3.216c3.034-1.586,4.227-5.369,2.666-8.45
				C2153.122,2498.58,2149.41,2497.362,2146.376,2498.947z"/>
			<path style="fill:#FFFFFF;" d="M2125.846,2509.618l-6.158,3.2c-3.056,1.587-4.267,5.39-2.704,8.493
				c1.563,3.104,5.307,4.333,8.363,2.746l0.015-0.008l6.153-3.216c3.047-1.593,4.247-5.394,2.678-8.489
				C2132.624,2509.25,2128.893,2508.025,2125.846,2509.618z"/>
			<path style="fill:#FFFFFF;" d="M2105.316,2520.278l-6.16,3.192c-3.071,1.59-4.292,5.408-2.727,8.528
				c1.566,3.12,5.325,4.36,8.398,2.769l0.016-0.008l6.158-3.21c3.063-1.597,4.271-5.414,2.699-8.524
				C2112.126,2519.914,2108.379,2518.68,2105.316,2520.278z"/>
			<path style="fill:#FFFFFF;" d="M2084.777,2530.905l-6.165,3.179c-3.089,1.59-4.324,5.423-2.759,8.56
				c1.566,3.137,5.339,4.391,8.429,2.801l0.018-0.009l6.166-3.199c3.08-1.598,4.301-5.429,2.728-8.557
				C2091.621,2530.552,2087.857,2529.307,2084.777,2530.905z"/>
			<path style="fill:#FFFFFF;" d="M2064.22,2541.481l-6.172,3.16c-3.108,1.587-4.361,5.433-2.798,8.589
				c1.563,3.156,5.35,4.428,8.458,2.841l0.019-0.01l6.176-3.181c3.099-1.596,4.336-5.441,2.765-8.588
				C2071.096,2541.147,2067.319,2539.885,2064.22,2541.481z"/>
			<path style="fill:#FFFFFF;" d="M2043.636,2551.987l-6.182,3.135c-3.128,1.581-4.402,5.439-2.845,8.616
				c1.557,3.177,5.355,4.471,8.484,2.889l0.021-0.011l6.189-3.158c3.118-1.591,4.376-5.448,2.81-8.615
				S2046.754,2550.396,2043.636,2551.987z"/>
			<path style="fill:#FFFFFF;" d="M2023.015,2562.402l-6.194,3.104c-3.151,1.572-4.449,5.44-2.901,8.639s5.356,4.518,8.507,2.946
				l0.022-0.011l6.205-3.128c3.14-1.583,4.422-5.451,2.863-8.639C2029.959,2562.123,2026.155,2560.819,2023.015,2562.402z"/>
			<path style="fill:#FFFFFF;" d="M2002.35,2572.706l-6.21,3.067l-0.011,0.005c-3.171,1.566-4.49,5.445-2.949,8.665
				c1.542,3.22,5.361,4.561,8.532,2.995l0.014-0.007l6.224-3.093c3.162-1.572,4.472-5.449,2.924-8.661
				c-1.547-3.212-5.365-4.541-8.528-2.97L2002.35,2572.706z"/>
			<path style="fill:#FFFFFF;" d="M1981.629,2582.879l-6.228,3.024l-0.012,0.006c-3.194,1.551-4.546,5.439-3.019,8.683
				c1.527,3.244,5.355,4.617,8.549,3.066l0.014-0.007l6.245-3.051c3.187-1.557,4.527-5.442,2.994-8.679
				c-1.533-3.236-5.359-4.598-8.546-3.041L1981.629,2582.879z"/>
			<path style="fill:#FFFFFF;" d="M1960.848,2592.906l-6.245,2.982l-0.014,0.007c-3.214,1.534-4.594,5.423-3.083,8.687
				c1.511,3.263,5.34,4.665,8.554,3.131l0.002-0.001l6.272-2.997c3.212-1.535,4.591-5.424,3.08-8.686
				c-1.511-3.262-5.34-4.663-8.553-3.128L1960.848,2592.906z"/>
			<path style="fill:#FFFFFF;" d="M1940.005,2602.783l-6.268,2.927l-0.016,0.007c-3.227,1.507-4.641,5.386-3.156,8.664
				c1.484,3.278,5.303,4.713,8.531,3.206l0.001-0.001l6.299-2.943c3.227-1.508,4.639-5.386,3.154-8.663
				c-1.484-3.277-5.303-4.711-8.531-3.203L1940.005,2602.783z"/>
			<path style="fill:#FFFFFF;" d="M1919.082,2612.47l-6.293,2.866l-0.017,0.008c-3.243,1.477-4.693,5.344-3.239,8.637
				c1.454,3.293,5.262,4.766,8.504,3.289l0.002-0.001l6.328-2.884c3.242-1.477,4.69-5.344,3.236-8.636
				c-1.455-3.293-5.262-4.764-8.504-3.287L1919.082,2612.47z"/>
			<path style="fill:#FFFFFF;" d="M1898.072,2621.943l-6.332,2.8l-0.02,0.009c-3.26,1.442-4.752,5.294-3.332,8.605
				c1.42,3.31,5.213,4.825,8.473,3.383l0.002,0l6.371-2.82c3.259-1.442,4.75-5.295,3.33-8.604c-1.42-3.31-5.214-4.823-8.473-3.381
				L1898.072,2621.943z"/>
			<path style="fill:#FFFFFF;" d="M1876.955,2631.18l-6.352,2.72l-0.021,0.009c-3.278,1.404-4.814,5.24-3.432,8.569
				c1.382,3.328,5.16,4.889,8.438,3.485l0.001,0l6.394-2.74c3.276-1.404,4.812-5.24,3.429-8.568
				c-1.383-3.328-5.161-4.887-8.437-3.483L1876.955,2631.18z"/>
			<path style="fill:#FFFFFF;" d="M1855.747,2640.156l-6.383,2.639l-0.023,0.01c-3.296,1.363-4.88,5.181-3.538,8.529
				c1.342,3.347,5.102,4.956,8.398,3.593l0.001,0l6.429-2.66c3.295-1.364,4.878-5.182,3.536-8.528
				c-1.343-3.346-5.103-4.954-8.398-3.59L1855.747,2640.156z"/>
			<path style="fill:#FFFFFF;" d="M1834.433,2648.854l-6.415,2.552l-0.025,0.01c-3.315,1.319-4.949,5.117-3.651,8.484
				c1.299,3.367,5.04,5.026,8.354,3.708l0.002-0.001l6.464-2.574c3.314-1.32,4.948-5.118,3.648-8.484s-5.039-5.024-8.354-3.704
				L1834.433,2648.854z"/>
			<path style="fill:#FFFFFF;" d="M1813.01,2657.257l-6.449,2.46l-0.026,0.01c-3.335,1.272-5.022,5.049-3.769,8.435
				c1.252,3.386,4.971,5.1,8.305,3.828l0.002,0l6.5-2.482c3.334-1.273,5.02-5.049,3.767-8.435s-4.972-5.098-8.305-3.825
				L1813.01,2657.257z"/>
			<path style="fill:#FFFFFF;" d="M1791.475,2665.345l-6.483,2.362l-0.028,0.01c-3.354,1.222-5.098,4.974-3.895,8.381
				c1.203,3.406,4.898,5.177,8.253,3.955l0.002,0l6.538-2.384c3.353-1.223,5.096-4.975,3.891-8.381
				c-1.204-3.406-4.899-5.175-8.252-3.952L1791.475,2665.345z"/>
			<path style="fill:#FFFFFF;" d="M1769.827,2673.098l-6.517,2.257l-0.029,0.01c-3.374,1.169-5.177,4.894-4.026,8.321
				c1.151,3.427,4.819,5.257,8.194,4.088l0.001,0l6.576-2.28c3.373-1.17,5.175-4.895,4.023-8.321s-4.82-5.255-8.193-4.085
				L1769.827,2673.098z"/>
			<path style="fill:#FFFFFF;" d="M1748.065,2680.495l-6.551,2.146l-0.031,0.01c-3.395,1.112-5.258,4.808-4.164,8.256
				c1.095,3.447,4.735,5.34,8.13,4.228l0.001,0l6.614-2.169c3.394-1.113,5.256-4.809,4.161-8.256
				c-1.096-3.447-4.736-5.338-8.13-4.226L1748.065,2680.495z"/>
			<path style="fill:#FFFFFF;" d="M1726.188,2687.514l-6.585,2.029l-0.034,0.01c-3.414,1.052-5.343,4.716-4.307,8.184
				c1.036,3.468,4.644,5.427,8.059,4.375l0.001-0.001l6.652-2.051c3.414-1.053,5.341-4.717,4.304-8.184s-4.644-5.425-8.059-4.372
				L1726.188,2687.514z"/>
			<path style="fill:#FFFFFF;" d="M1704.197,2694.134l-6.62,1.904l-0.035,0.01c-3.435,0.988-5.431,4.617-4.458,8.105
				c0.973,3.489,4.546,5.515,7.981,4.527h0.002l6.69-1.927c3.434-0.989,5.428-4.618,4.455-8.105
				c-0.974-3.488-4.547-5.513-7.981-4.524L1704.197,2694.134z"/>
			<path style="fill:#FFFFFF;" d="M1682.093,2700.33l-6.653,1.773l-0.037,0.01c-3.455,0.921-5.521,4.511-4.614,8.019
				s4.442,5.606,7.897,4.686l0.002,0l6.727-1.795c3.454-0.921,5.519-4.512,4.611-8.019c-0.907-3.508-4.443-5.604-7.896-4.683
				L1682.093,2700.33z"/>
			<path style="fill:#FFFFFF;" d="M1659.879,2706.081l-6.685,1.634l-0.039,0.01c-3.474,0.849-5.612,4.398-4.776,7.926
				c0.836,3.528,4.33,5.7,7.804,4.85l0.002,0l6.764-1.656c3.473-0.85,5.61-4.398,4.773-7.926c-0.837-3.528-4.331-5.698-7.805-4.848
				L1659.879,2706.081z"/>
			<path style="fill:#FFFFFF;" d="M1637.558,2711.36l-6.716,1.488l-0.042,0.01c-3.493,0.774-5.706,4.277-4.944,7.823
				c0.762,3.547,4.212,5.795,7.704,5.021l0.002,0l6.799-1.509c3.492-0.775,5.704-4.278,4.942-7.824
				c-0.763-3.546-4.213-5.793-7.704-5.018L1637.558,2711.36z"/>
			<path style="fill:#FFFFFF;" d="M1615.137,2716.145l-6.751,1.336l-0.044,0.009c-3.511,0.695-5.802,4.148-5.117,7.713
				c0.684,3.565,4.084,5.892,7.595,5.197l0.001,0l6.839-1.355c3.51-0.696,5.8-4.149,5.115-7.713
				c-0.685-3.564-4.085-5.89-7.595-5.194L1615.137,2716.145z"/>
			<path style="fill:#FFFFFF;" d="M1592.606,2720.412l-6.773,1.174l-0.046,0.008c-3.527,0.612-5.898,4.011-5.296,7.593
				c0.602,3.582,3.95,5.99,7.477,5.378l0.002,0l6.864-1.192c3.526-0.612,5.896-4.012,5.293-7.593
				c-0.604-3.582-3.951-5.988-7.477-5.376L1592.606,2720.412z"/>
			<path style="fill:#FFFFFF;" d="M1570.006,2724.131l-6.792,1.005l-0.048,0.007c-3.542,0.524-5.995,3.866-5.479,7.463
				c0.517,3.597,3.807,6.088,7.349,5.564h0.002l6.887-1.021c3.542-0.525,5.994-3.866,5.476-7.463
				c-0.517-3.597-3.807-6.086-7.349-5.562L1570.006,2724.131z"/>
			<path style="fill:#FFFFFF;" d="M1547.33,2727.281l-6.809,0.83l-0.05,0.006c-3.556,0.433-6.093,3.712-5.666,7.323
				c0.426,3.611,3.654,6.188,7.21,5.754l0.001,0l6.91-0.843c3.555-0.434,6.091-3.713,5.664-7.323
				c-0.428-3.61-3.656-6.185-7.211-5.751L1547.33,2727.281z"/>
			<path style="fill:#FFFFFF;" d="M1524.592,2729.836l-6.824,0.646l-0.052,0.005c-3.567,0.338-6.189,3.549-5.857,7.171
				c0.333,3.623,3.494,6.286,7.062,5.948h0.002l6.928-0.658c3.566-0.339,6.188-3.55,5.854-7.172
				c-0.333-3.622-3.495-6.284-7.063-5.945L1524.592,2729.836z"/>
			<path style="fill:#FFFFFF;" d="M1501.804,2731.773l-6.837,0.457l-0.054,0.004c-3.577,0.239-6.286,3.377-6.05,7.01
				c0.235,3.632,3.326,6.383,6.902,6.144l0.002,0l6.944-0.466c3.577-0.24,6.284-3.378,6.048-7.01
				c-0.236-3.632-3.327-6.382-6.903-6.142L1501.804,2731.773z"/>
			<path style="fill:#FFFFFF;" d="M1478.978,2733.07l-6.846,0.261l-0.056,0.002c-3.584,0.136-6.379,3.197-6.245,6.836
				c0.134,3.639,3.148,6.479,6.732,6.343h0.002l6.958-0.267c3.583-0.137,6.378-3.198,6.243-6.837
				c-0.135-3.639-3.149-6.477-6.733-6.34L1478.978,2733.07z"/>
			<path style="fill:#FFFFFF;" d="M1456.13,2733.704l-6.854,0.058l-0.057,0c-3.588,0.03-6.472,3.008-6.442,6.652
				c0.03,3.643,2.962,6.572,6.55,6.542h0.002l6.968-0.061c3.587-0.031,6.47-3.01,6.439-6.652c-0.031-3.643-2.964-6.571-6.551-6.54
				L1456.13,2733.704z"/>
			<path style="fill:#FFFFFF;" d="M1433.276,2733.655l-6.857-0.152l-0.065-0.001c-3.588-0.08-6.561,2.81-6.639,6.454
				c-0.078,3.644,2.767,6.663,6.355,6.743h0.002l6.984,0.153c3.588,0.079,6.559-2.812,6.637-6.455
				c0.077-3.644-2.768-6.662-6.356-6.74L1433.276,2733.655z"/>
			<path style="fill:#FFFFFF;" d="M1410.446,2732.875l-6.84-0.387l-0.066-0.004c-3.585-0.203-6.653,2.585-6.852,6.226
				c-0.2,3.641,2.545,6.757,6.131,6.959h0.001l6.972,0.392c3.585,0.201,6.652-2.586,6.851-6.227
				c0.198-3.641-2.547-6.755-6.132-6.957L1410.446,2732.875z"/>
			<path style="fill:#FFFFFF;" d="M1387.662,2731.314l-6.823-0.621l-0.066-0.006c-3.578-0.325-6.738,2.357-7.058,5.991
				c-0.321,3.634,2.32,6.843,5.898,7.169l0.002,0l6.955,0.63c3.578,0.324,6.737-2.358,7.057-5.992
				c0.319-3.633-2.322-6.842-5.9-7.167L1387.662,2731.314z"/>
			<path style="fill:#FFFFFF;" d="M1364.944,2728.973l-6.798-0.854l-0.066-0.009c-3.567-0.448-6.816,2.125-7.258,5.747
				c-0.441,3.622,2.092,6.922,5.659,7.371h0.002l6.93,0.869c3.566,0.447,6.815-2.126,7.255-5.749c0.44-3.622-2.094-6.921-5.66-7.368
				L1364.944,2728.973z"/>
			<path style="fill:#FFFFFF;" d="M1342.318,2725.852l-6.765-1.089l-0.066-0.01c-3.552-0.572-6.887,1.889-7.45,5.496
				c-0.563,3.606,1.86,6.994,5.412,7.565l0.002,0l6.898,1.108c3.551,0.571,6.885-1.89,7.447-5.497
				c0.562-3.606-1.861-6.992-5.412-7.563L1342.318,2725.852z"/>
			<path style="fill:#FFFFFF;" d="M1319.813,2721.948l-6.724-1.324l-0.066-0.013c-3.531-0.696-6.95,1.648-7.634,5.235
				c-0.685,3.586,1.623,7.058,5.154,7.753l0.002,0l6.857,1.348c3.531,0.694,6.948-1.65,7.632-5.236
				c0.684-3.586-1.625-7.056-5.156-7.75L1319.813,2721.948z"/>
			<path style="fill:#FFFFFF;" d="M1297.456,2717.259l-6.673-1.561l-0.067-0.016c-3.507-0.821-7.005,1.402-7.813,4.964
				c-0.807,3.562,1.381,7.114,4.888,7.934l0.002,0l6.808,1.59c3.507,0.819,7.004-1.404,7.81-4.965
				c0.807-3.562-1.383-7.113-4.889-7.932L1297.456,2717.259z"/>
			<path style="fill:#FFFFFF;" d="M1275.278,2711.779l-6.614-1.799l-0.068-0.018c-3.478-0.946-7.052,1.151-7.984,4.682
				c-0.932,3.532,1.132,7.162,4.611,8.108l0.002,0l6.749,1.834c3.478,0.945,7.051-1.152,7.982-4.683
				c0.931-3.532-1.134-7.161-4.612-8.106L1275.278,2711.779z"/>
			<path style="fill:#FFFFFF;" d="M1253.311,2705.502l-6.545-2.04l-0.068-0.021c-3.444-1.073-7.092,0.892-8.149,4.389
				c-1.057,3.497,0.878,7.202,4.322,8.275l0.002,0l6.682,2.081c3.443,1.072,7.09-0.894,8.146-4.391
				c1.056-3.497-0.88-7.201-4.323-8.273L1253.311,2705.502z"/>
			<path style="fill:#FFFFFF;" d="M1231.587,2698.421l-6.464-2.282l-0.068-0.024c-3.404-1.202-7.123,0.627-8.306,4.083
				c-1.183,3.457,0.617,7.233,4.021,8.435l0.002,0l6.603,2.329c3.404,1.201,7.121-0.628,8.304-4.085
				c1.182-3.457-0.619-7.232-4.022-8.433L1231.587,2698.421z"/>
			<path style="fill:#FFFFFF;" d="M1210.142,2690.528l-6.373-2.528l-0.07-0.028c-3.359-1.332-7.144,0.353-8.456,3.764
				c-1.312,3.411,0.348,7.255,3.706,8.587l0.001,0.001l6.513,2.581c3.359,1.331,7.144-0.355,8.454-3.766s-0.35-7.254-3.708-8.585
				L1210.142,2690.528z"/>
			<path style="fill:#FFFFFF;" d="M1189.015,2681.815l-6.27-2.775l-0.07-0.031c-3.307-1.463-7.155,0.072-8.596,3.43
				c-1.441,3.358,0.071,7.267,3.378,8.73l0.001,0.001l6.412,2.836c3.307,1.462,7.154-0.074,8.594-3.432
				c1.44-3.358-0.073-7.266-3.38-8.728L1189.015,2681.815z"/>
			<path style="fill:#FFFFFF;" d="M1168.245,2672.273l-6.155-3.026l-0.072-0.034c-3.248-1.597-7.155-0.217-8.727,3.081
				c-1.572,3.299-0.214,7.267,3.035,8.864l0.002,0l6.298,3.094c3.248,1.596,7.155,0.215,8.726-3.084
				c1.571-3.299,0.212-7.266-3.036-8.862L1168.245,2672.273z"/>
			<path style="fill:#FFFFFF;" d="M1147.877,2661.895l-6.025-3.278l-0.072-0.039c-3.183-1.731-7.144-0.515-8.849,2.717
				c-1.704,3.232-0.506,7.255,2.676,8.986l0.002,0.001l6.17,3.354c3.183,1.73,7.144,0.512,8.847-2.719
				c1.704-3.232,0.505-7.255-2.678-8.985L1147.877,2661.895z"/>
			<path style="fill:#FFFFFF;" d="M1127.956,2650.674l-5.89-3.537l-0.073-0.043c-3.109-1.867-7.119-0.82-8.958,2.337
				c-1.838,3.157-0.808,7.23,2.302,9.097l0.001,0.001l6.036,3.622c3.109,1.865,7.119,0.818,8.956-2.339
				c1.837-3.158,0.806-7.23-2.303-9.095L1127.956,2650.674z"/>
			<path style="fill:#FFFFFF;" d="M1108.515,2638.595l-5.721-3.786l-0.073-0.048c-3.028-2.003-7.081-1.135-9.054,1.94
				c-1.972,3.074-1.117,7.191,1.91,9.194l0.001,0.001l5.868,3.88c3.028,2.002,7.08,1.133,9.052-1.942
				c1.971-3.075,1.115-7.191-1.913-9.193L1108.515,2638.595z"/>
			<path style="fill:#FFFFFF;" d="M1089.64,2625.677l-5.539-4.034l-0.072-0.053c-2.938-2.14-7.027-1.456-9.134,1.527
				c-2.108,2.983-1.434,7.136,1.503,9.276l0.002,0.001l5.685,4.138c2.938,2.139,7.026,1.454,9.132-1.529
				c2.106-2.983,1.432-7.136-1.506-9.274L1089.64,2625.677z"/>
			<path style="fill:#FFFFFF;" d="M1071.375,2611.917l-5.357-4.295l-0.072-0.058c-2.839-2.276-6.957-1.784-9.198,1.099
				c-2.241,2.883-1.757,7.064,1.082,9.34l0.001,0.001l5.502,4.409c2.839,2.275,6.956,1.782,9.196-1.101
				c2.24-2.883,1.755-7.064-1.084-9.339L1071.375,2611.917z"/>
			<path style="fill:#FFFFFF;" d="M1053.758,2597.305l-5.148-4.546l-0.072-0.063c-2.73-2.411-6.868-2.118-9.242,0.655
				c-2.374,2.773-2.085,6.975,0.645,9.386l0.001,0.001l5.292,4.67c2.73,2.41,6.867,2.116,9.241-0.657
				c2.373-2.773,2.084-6.975-0.647-9.385L1053.758,2597.305z"/>
			<path style="fill:#FFFFFF;" d="M1036.856,2581.862l-4.922-4.794l-0.07-0.068c-2.613-2.544-6.762-2.456-9.267,0.197
				c-2.505,2.653-2.418,6.867,0.195,9.411l0.001,0.001l5.064,4.928c2.613,2.543,6.761,2.454,9.266-0.2
				c2.504-2.654,2.416-6.867-0.197-9.41L1036.856,2581.862z"/>
			<path style="fill:#FFFFFF;" d="M1020.727,2565.6l-4.68-5.035l-0.068-0.073c-2.486-2.675-6.636-2.796-9.27-0.271
				c-2.634,2.524-2.753,6.739-0.267,9.414l0.001,0.001l4.817,5.18c2.486,2.674,6.636,2.794,9.268,0.269
				c2.632-2.524,2.751-6.739,0.264-9.412L1020.727,2565.6z"/>
			<path style="fill:#FFFFFF;" d="M1005.426,2548.542l-4.415-5.261l-0.065-0.078c-2.35-2.801-6.491-3.136-9.248-0.75
				c-2.758,2.387-3.088,6.592-0.738,9.392l0.001,0.001l4.547,5.416c2.35,2.8,6.49,3.134,9.247,0.747
				c2.756-2.387,3.086-6.591,0.736-9.391L1005.426,2548.542z"/>
			<path style="fill:#FFFFFF;" d="M991.027,2530.748l-4.096-5.471l-0.084-0.113c-2.186-2.92-6.288-3.487-9.163-1.268
				c-2.875,2.22-3.453,6.36-1.268,9.28l4.244,5.727c2.178,2.938,6.289,3.527,9.182,1.316c2.893-2.211,3.474-6.386,1.296-9.324
				l-0.019-0.026L991.027,2530.748z"/>
			<path style="fill:#FFFFFF;" d="M977.723,2512.141l-3.805-5.74l-0.053-0.079c-1.999-3.016-6.028-3.816-8.999-1.785
				c-2.97,2.031-3.775,6.096-1.775,9.112l3.882,5.918c1.99,3.034,6.026,3.856,9.014,1.834c2.988-2.021,3.797-6.12,1.806-9.154
				l-0.018-0.027L977.723,2512.141z"/>
			<path style="fill:#FFFFFF;" d="M965.334,2492.774l-3.549-5.922l-0.045-0.075c-1.845-3.079-5.799-4.057-8.832-2.183
				c-3.032,1.874-4.01,5.863-2.166,8.942l3.609,6.088c1.835,3.097,5.796,4.096,8.845,2.233c3.05-1.864,4.034-5.886,2.198-8.983
				l-0.016-0.027L965.334,2492.774z"/>
			<path style="fill:#FFFFFF;" d="M953.806,2472.843l-3.284-6.075l-0.042-0.079c-1.693-3.132-5.565-4.277-8.65-2.558
				c-3.073,1.713-4.203,5.627-2.534,8.754l3.335,6.249c1.682,3.15,5.56,4.319,8.661,2.612c3.102-1.708,4.253-5.646,2.572-8.795
				l-0.016-0.03L953.806,2472.843z"/>
			<path style="fill:#FFFFFF;" d="M943.132,2452.438l-3.016-6.214l-0.042-0.087c-1.519-3.129-5.248-4.415-8.33-2.873
				c-3.056,1.53-4.325,5.271-2.864,8.385l3.018,6.427c1.49,3.172,5.229,4.517,8.353,3.005c3.123-1.513,4.448-5.311,2.958-8.483
				c-0.007-0.014-0.013-0.029-0.02-0.043L943.132,2452.438z"/>
			<path style="fill:#FFFFFF;" d="M933.46,2431.556l-2.677-6.36l-0.042-0.1c-1.318-3.131-4.885-4.583-7.968-3.245
				c-3.057,1.327-4.488,4.905-3.226,8.018l2.677,6.594c1.287,3.171,4.863,4.682,7.986,3.375c3.123-1.307,4.61-4.938,3.323-8.11
				c-0.006-0.014-0.012-0.029-0.018-0.043L933.46,2431.556z"/>
			<path style="fill:#FFFFFF;" d="M924.99,2410.189l-2.275-6.501l-0.042-0.12c-1.094-3.126-4.477-4.76-7.555-3.649
				c-3.05,1.101-4.655,4.488-3.621,7.591l2.262,6.771c1.059,3.169,4.446,4.866,7.567,3.792c3.121-1.075,4.792-4.515,3.734-7.685
				c-0.006-0.017-0.012-0.035-0.018-0.052L924.99,2410.189z"/>
			<path style="fill:#FFFFFF;" d="M917.913,2388.368l-1.794-6.632l-0.039-0.146c-0.83-3.068-3.952-4.873-6.974-4.03
				c-2.981,0.832-4.748,3.936-3.998,6.965l1.728,6.956c0.777,3.125,3.901,5.021,6.979,4.232c3.078-0.789,4.943-3.962,4.167-7.088
				c-0.008-0.03-0.015-0.06-0.023-0.09L917.913,2388.368z"/>
			<path style="fill:#FFFFFF;" d="M912.636,2366.117l-1.155-6.745l-0.031-0.181c-0.514-3.001-3.326-5.011-6.282-4.489
				c-2.916,0.515-4.88,3.309-4.438,6.265l1.069,7.123c0.458,3.053,3.267,5.15,6.273,4.685c3.006-0.465,5.072-3.317,4.613-6.37
				c-0.004-0.03-0.009-0.059-0.014-0.088L912.636,2366.117z"/>
			<path style="fill:#FFFFFF;" d="M909.673,2343.55l-0.358-6.794l-0.012-0.226c-0.151-2.88-2.573-5.089-5.409-4.935
				c-2.783,0.151-4.93,2.532-4.865,5.343l0.175,7.243c0.072,2.941,2.476,5.265,5.372,5.193c2.895-0.072,5.185-2.514,5.114-5.455
				c-0.001-0.043-0.003-0.086-0.005-0.129L909.673,2343.55z"/>
			<path style="fill:#FFFFFF;" d="M909.651,2320.942l0.7-6.721l0.028-0.27c0.28-2.682-1.635-5.086-4.276-5.37
				c-2.592-0.279-4.922,1.597-5.271,4.202l-0.961,7.224c-0.364,2.731,1.522,5.243,4.21,5.612c2.688,0.369,5.162-1.545,5.525-4.275
				c0.005-0.041,0.01-0.08,0.015-0.12L909.651,2320.942z"/>
			<path style="fill:#FFFFFF;" d="M913.426,2298.825l1.958-6.42l0.09-0.293c0.722-2.368-0.583-4.883-2.915-5.616
				c-2.273-0.715-4.686,0.535-5.475,2.792l-2.404,6.904c-0.84,2.413,0.404,5.061,2.781,5.915c2.376,0.854,4.984-0.411,5.824-2.824
				c0.018-0.052,0.035-0.104,0.052-0.157L913.426,2298.825z"/>
			<path style="fill:#FFFFFF;" d="M921.594,2278.069l3.365-5.793l0.149-0.256c1.113-1.915,0.486-4.384-1.4-5.513
				c-1.838-1.101-4.198-0.517-5.346,1.286l-3.904,6.149c-1.229,1.936-0.68,4.517,1.226,5.766c1.906,1.248,4.448,0.69,5.677-1.246
				c0.027-0.042,0.052-0.084,0.077-0.126L921.594,2278.069z"/>
			<path style="fill:#FFFFFF;" d="M934.365,2259.771l4.636-4.878l0.166-0.174c1.346-1.416,1.307-3.672-0.088-5.04
				c-1.359-1.332-3.51-1.323-4.864-0.01l-5.169,5.025c-1.457,1.416-1.508,3.763-0.114,5.242c1.394,1.479,3.705,1.531,5.162,0.115
				c0.031-0.031,0.063-0.062,0.092-0.093L934.365,2259.771z"/>
			<path style="fill:#FFFFFF;" d="M950.981,2244.658l5.549-3.899l0.136-0.095c1.344-0.945,1.68-2.817,0.75-4.182
				c-0.898-1.319-2.657-1.677-3.987-0.848l-6.03,3.775c-1.48,0.926-1.94,2.895-1.027,4.397c0.912,1.503,2.85,1.97,4.33,1.044
				c0.044-0.028,0.088-0.057,0.13-0.086L950.981,2244.658z"/>
		</g>
		<g>
			<g>
				
					<linearGradient id="SVGID_00000071561477612666927420000013153267184548170141_" gradientUnits="userSpaceOnUse" x1="1550.6656" y1="1748.475" x2="3630.948" y2="3280.7795">
					<stop  offset="0" style="stop-color:#E1473D"/>
					<stop  offset="1" style="stop-color:#E9605A"/>
				</linearGradient>
				<path style="fill:url(#SVGID_00000071561477612666927420000013153267184548170141_);" d="M515.82,1302.73
					c-34.046,0.012-59.281,31.62-51.747,64.824l330.975,1458.392c5.591,24.63,27.76,41.909,53.007,41.314l2353.781-55.394
					c29.308-0.691,52.507-25.012,51.812-54.318l-33.22-1403.663c-0.681-28.821-24.246-51.826-53.072-51.819L515.82,1302.73z"/>
				<path style="fill:#BDD0FB;" d="M738.539,910.725c-29.873-0.708-53.655,24.84-50.814,54.586l136.673,1431.55
					c2.487,26.035,24.663,45.725,50.807,45.11l2106.101-49.567c26.208-0.616,47.461-21.423,48.638-47.61l59.586-1327.453
					c1.254-27.923-20.687-51.421-48.629-52.081L738.539,910.725z"/>
				<g>
					<path style="fill:#91B3FA;" d="M2769.523,2198.275c41.24,5.218,78.948-23.859,84.386-65.07l171.173-1297.266
						c5.458-41.367-23.651-79.327-65.019-84.785L1017.06,494.776c-41.288-5.448-79.199,23.543-84.758,64.818L756.25,1866.771
						c-5.601,41.587,23.76,79.77,65.391,85.038L2769.523,2198.275z"/>
					<path style="fill:#BDD0FB;" d="M928.829,1892.309c-42.649-5.021-72.855-44.092-66.976-86.631l160.198-1159.021
						c5.791-41.895,44.416-71.186,86.32-65.458L2851.217,819.4c41.271,5.641,70.486,43.205,65.791,84.595l-128.15,1129.762
						c-4.786,42.195-42.961,72.459-85.135,67.495L928.829,1892.309z"/>
					<path style="opacity:0.6;fill:#FFFFFF;" d="M930.668,1738.994c-1.99,15.079,8.621,28.917,23.701,30.906l9.603,1.267
						c15.079,1.99,28.917-8.621,30.907-23.701l141.619-1073.28c1.99-15.079-8.622-28.917-23.701-30.906l-9.603-1.267
						c-15.08-1.99-28.917,8.622-30.907,23.701L930.668,1738.994z"/>
					<path style="opacity:0.6;fill:#FFFFFF;" d="M1090.963,1666.088L1090.963,1666.088c14.395,1.112,27.204-9.082,29.353-23.359
						l140.959-936.381c2.293-15.235-8.357-29.388-23.631-31.403l-2.229-0.294c-14.91-1.967-28.642,8.391-30.846,23.268
						l-138.729,936.675C1063.5,1650.39,1075.042,1664.858,1090.963,1666.088z"/>
					<path style="opacity:0.61;fill:#FFFFFF;" d="M2734.734,1984.534c0.034-0.258,0.069-0.521,0.101-0.784l126.808-1058.864
						c2.083-17.416-2.764-34.578-13.653-48.329c-10.885-13.751-26.481-22.404-43.908-24.372l-1437.75-162.03
						c-17.349-1.957-34.422,2.964-48.069,13.853c-13.65,10.889-22.26,26.618-24.183,43.792l-118.71,1058.058
						c-4.012,35.739,21.799,68.132,57.535,72.21c0.003,0.001,0.003,0.001,0.003,0.001l1429.655,162.835
						C2697.89,2044.928,2730.094,2019.698,2734.734,1984.534z M1235.369,1856.463c-23.847-2.718-41.07-24.329-38.394-48.183
						l118.71-1058.058c1.25-11.48,7.028-21.956,16.135-29.219s20.498-10.546,32.075-9.239l79.747,8.987l-150.471,1140.367
						c-0.086,0.649-0.102,1.289-0.073,1.92L1235.369,1856.463z M2665.021,2019.298l-1350.615-153.833
						c0.136-0.488,0.251-0.985,0.319-1.502l150.525-1140.777l1336.396,150.608c11.628,1.309,22.032,7.083,29.297,16.255
						c7.265,9.177,10.499,20.634,9.108,32.255l-126.808,1058.864c-0.021,0.175-0.043,0.349-0.066,0.522
						C2710.083,2005.149,2688.594,2021.986,2665.021,2019.298z"/>
				</g>
			</g>
			<g>
				<g>
					<g style="opacity:0.3;">
						
							<linearGradient id="SVGID_00000087397856651999345970000001368272315834741155_" gradientUnits="userSpaceOnUse" x1="1468.3264" y1="5.4907" x2="2038.1008" y2="5.4907" gradientTransform="matrix(0.9668 0.2557 -0.2557 0.9668 622.8935 422.4379)">
							<stop  offset="0" style="stop-color:#4042E2"/>
							<stop  offset="1" style="stop-color:#4F52FF"/>
						</linearGradient>
						<path style="fill:url(#SVGID_00000087397856651999345970000001368272315834741155_);" d="M1995.172,1023.748
							c-4.881-1.291-8.099-6.089-7.305-11.187c1.732-11.15,3.976-22.391,6.666-33.41c1.309-5.361,6.715-8.646,12.074-7.337
							c0.064,0.017,0.126,0.033,0.188,0.05c5.247,1.388,8.44,6.729,7.147,12.025c-2.557,10.468-4.687,21.146-6.334,31.737
							c-0.846,5.451-5.953,9.186-11.406,8.338C1995.851,1023.911,1995.508,1023.837,1995.172,1023.748z M2018.046,939.78
							c-0.377-0.1-0.754-0.224-1.127-0.37c-5.131-2.027-7.648-7.831-5.621-12.962c4.166-10.539,8.823-21.005,13.843-31.104
							c2.455-4.941,8.426-6.95,13.393-4.502c4.94,2.457,6.953,8.454,4.499,13.391c-4.771,9.6-9.195,19.542-13.152,29.559
							C2028,938.55,2022.873,941.056,2018.046,939.78z M2058.84,862.937c-1.075-0.284-2.121-0.755-3.092-1.419
							c-4.549-3.121-5.712-9.337-2.593-13.889c6.391-9.329,13.27-18.497,20.444-27.247c3.501-4.265,9.793-4.881,14.059-1.392
							c4.265,3.498,4.889,9.794,1.391,14.059c-6.813,8.309-13.343,17.012-19.414,25.872
							C2067.183,862.503,2062.809,863.986,2058.84,862.937z M2115.804,797.131c-1.777-0.47-3.445-1.436-4.782-2.888
							c-3.739-4.056-3.479-10.377,0.577-14.116c8.325-7.667,17.079-15.067,26.021-21.994c4.361-3.371,10.633-2.576,14.015,1.781
							c3.377,4.361,2.58,10.636-1.781,14.015c-8.492,6.578-16.809,13.605-24.717,20.894
							C2122.531,797.223,2118.994,797.975,2115.804,797.131z M2186.011,745.682c-2.492-0.659-4.728-2.276-6.111-4.688
							c-2.746-4.787-1.091-10.892,3.695-13.634c9.792-5.616,19.965-10.893,30.231-15.677c4.999-2.335,10.944-0.173,13.275,4.831
							c2.33,5,0.167,10.943-4.834,13.277c-9.76,4.547-19.427,9.562-28.733,14.899
							C2191.161,746.051,2188.463,746.331,2186.011,745.682z M2265.846,711.047c-3.228-0.854-5.954-3.302-7.005-6.729
							c-1.618-5.276,1.345-10.861,6.619-12.482c10.809-3.317,21.897-6.212,32.953-8.6c5.396-1.164,10.709,2.263,11.874,7.657
							c1.166,5.39-2.263,10.707-7.655,11.872c-10.506,2.271-21.039,5.019-31.31,8.171
							C2269.472,711.506,2267.587,711.508,2265.846,711.047z M2625.815,781.652c-1.337-0.354-2.619-0.991-3.76-1.923
							c-8.311-6.791-17.031-13.311-25.917-19.375c-4.556-3.11-5.729-9.326-2.62-13.879c3.109-4.559,9.324-5.732,13.882-2.621
							c9.358,6.386,18.543,13.252,27.296,20.402c4.273,3.491,4.905,9.786,1.414,14.057
							C2633.552,781.446,2629.485,782.622,2625.815,781.652z M2351.315,694.977c-4.006-1.06-7.086-4.562-7.407-8.926
							c-0.405-5.504,3.727-10.292,9.229-10.697c11.277-0.831,22.728-1.181,34.035-1.041c5.515,0.094,9.935,4.594,9.866,10.113
							c-0.068,5.516-4.597,9.933-10.115,9.866c-10.737-0.135-21.611,0.198-32.32,0.986
							C2353.466,695.359,2352.358,695.252,2351.315,694.977z M2552.649,734.539c-0.637-0.168-1.269-0.4-1.883-0.704
							c-9.626-4.762-19.587-9.168-29.601-13.104c-5.135-2.02-7.662-7.819-5.644-12.952c2.02-5.133,7.821-7.687,12.952-5.644
							c10.537,4.143,21.018,8.78,31.148,13.788c4.946,2.446,6.973,8.44,4.527,13.383
							C2562.008,733.636,2557.146,735.728,2552.649,734.539z M2438.231,698.401c-4.874-1.289-8.09-6.075-7.309-11.168
							c0.837-5.454,5.936-9.195,11.39-8.362c11.165,1.714,22.407,3.932,33.411,6.601c0.069,0.014,0.138,0.032,0.207,0.05
							c5.24,1.386,8.432,6.715,7.151,12.007c-1.3,5.364-6.698,8.658-12.061,7.357c-10.453-2.531-21.131-4.636-31.74-6.264
							C2438.925,698.564,2438.573,698.491,2438.231,698.401z"/>
						
							<linearGradient id="SVGID_00000003809685039187032290000004151408884063785860_" gradientUnits="userSpaceOnUse" x1="2065.7988" y1="-144.5845" x2="2099.0754" y2="-144.5845" gradientTransform="matrix(0.9668 0.2557 -0.2557 0.9668 622.8935 422.4379)">
							<stop  offset="0" style="stop-color:#4042E2"/>
							<stop  offset="1" style="stop-color:#4F52FF"/>
						</linearGradient>
						<path style="fill:url(#SVGID_00000003809685039187032290000004151408884063785860_);" d="M2675.896,830.768
							c-1.902-0.503-3.676-1.569-5.047-3.183c-3.335-3.925-6.81-7.843-10.322-11.654c-3.741-4.053-3.488-10.375,0.566-14.115
							c4.053-3.743,10.379-3.495,14.116,0.569c3.698,4.005,7.35,8.128,10.861,12.257c3.573,4.202,3.063,10.51-1.139,14.08
							C2682.34,830.927,2678.951,831.576,2675.896,830.768z"/>
					</g>
					<g style="opacity:0.3;">
						
							<linearGradient id="SVGID_00000090262358763333611440000010861768272904661429_" gradientUnits="userSpaceOnUse" x1="2238.5225" y1="109.6914" x2="2261.3572" y2="109.6914" gradientTransform="matrix(0.9668 0.2557 -0.2557 0.9668 622.8935 422.4379)">
							<stop  offset="0" style="stop-color:#4042E2"/>
							<stop  offset="1" style="stop-color:#4F52FF"/>
						</linearGradient>
						<path style="fill:url(#SVGID_00000090262358763333611440000010861768272904661429_);" d="M2766.89,1121.417
							c-4.661-1.233-7.87-5.698-7.375-10.649c0.513-5.124,0.928-10.346,1.23-15.517c0.323-5.509,5.049-9.712,10.556-9.39
							c5.531,0.325,9.712,5.051,9.39,10.556c-0.32,5.445-0.755,10.944-1.294,16.34c-0.55,5.49-5.445,9.494-10.935,8.946
							C2767.923,1121.65,2767.398,1121.552,2766.89,1121.417z"/>
						
							<linearGradient id="SVGID_00000168079865867156788050000010492529035977657736_" gradientUnits="userSpaceOnUse" x1="1679.3568" y1="369.4313" x2="2266.238" y2="369.4313" gradientTransform="matrix(0.9668 0.2557 -0.2557 0.9668 622.8935 422.4379)">
							<stop  offset="0" style="stop-color:#4042E2"/>
							<stop  offset="1" style="stop-color:#4F52FF"/>
						</linearGradient>
						<path style="fill:url(#SVGID_00000168079865867156788050000010492529035977657736_);" d="M2280.622,1459.224
							c-4.444-1.175-8.885-2.431-13.321-3.765c-5.283-1.591-8.278-7.162-6.689-12.445s7.192-8.29,12.444-6.691
							c10.239,3.08,20.579,5.738,30.853,7.922c5.399,1.158,8.841,6.451,7.694,11.847c-1.148,5.4-6.454,8.844-11.85,7.696
							C2293.399,1462.438,2286.962,1460.901,2280.622,1459.224z M2217.953,1436.849c-0.539-0.143-1.076-0.333-1.602-0.573
							c-10.141-4.624-20.2-9.73-29.893-15.176c-4.809-2.701-6.519-8.791-3.818-13.599c2.703-4.811,8.807-6.53,13.603-3.817
							c9.208,5.172,18.763,10.02,28.399,14.417c5.019,2.288,7.232,8.214,4.944,13.231
							C2227.535,1435.827,2222.572,1438.071,2217.953,1436.849z M2351.808,1471.13c-4.553-1.204-7.752-5.509-7.399-10.377
							c0.4-5.505,5.185-9.64,10.688-9.242c10.526,0.766,21.228,1.09,31.813,0.959c5.517-0.058,10.044,4.352,10.111,9.867
							c0.066,5.519-4.352,10.045-9.869,10.112c-11.146,0.136-22.418-0.206-33.503-1.01
							C2353.016,1471.392,2352.4,1471.286,2351.808,1471.13z M2144.402,1392.94c-1.226-0.324-2.408-0.891-3.48-1.704
							c-8.869-6.733-17.558-13.927-25.823-21.381c-4.096-3.695-4.422-10.009-0.728-14.105c3.696-4.1,10.009-4.428,14.108-0.729
							c7.848,7.076,16.098,13.908,24.522,20.302c4.396,3.334,5.252,9.603,1.917,13.996
							C2152.396,1392.641,2148.199,1393.944,2144.402,1392.94z M2437.333,1467.836c-3.735-0.988-6.715-4.109-7.327-8.174
							c-0.822-5.456,2.936-10.545,8.393-11.366c10.431-1.568,20.942-3.608,31.243-6.057c5.367-1.277,10.755,2.037,12.03,7.408
							c1.275,5.366-2.04,10.75-7.407,12.027c-10.844,2.581-21.91,4.728-32.894,6.38
							C2439.981,1468.262,2438.612,1468.174,2437.333,1467.836z M2520.067,1445.855c-2.986-0.79-5.565-2.949-6.768-6.048
							c-1.993-5.145,0.56-10.932,5.705-12.925c9.865-3.825,19.685-8.109,29.184-12.734c4.957-2.422,10.935-0.361,13.355,4.606
							c2.415,4.962,0.352,10.939-4.608,13.356c-9.998,4.867-20.33,9.376-30.712,13.399
							C2524.181,1446.302,2522.036,1446.376,2520.067,1445.855z M2596.04,1406.361c-2.271-0.601-4.339-1.999-5.747-4.107
							c-3.066-4.585-1.833-10.79,2.754-13.855c8.806-5.885,17.457-12.202,25.717-18.784c4.313-3.436,10.595-2.732,14.038,1.589
							c3.436,4.316,2.727,10.598-1.59,14.038c-8.693,6.924-17.799,13.577-27.063,19.768
							C2601.669,1406.667,2598.715,1407.068,2596.04,1406.361z M2661.587,1351.241c-1.573-0.416-3.065-1.222-4.328-2.424
							c-3.995-3.805-4.147-10.126-0.342-14.12c7.302-7.663,14.356-15.723,20.97-23.959c3.455-4.301,9.749-4.986,14.043-1.537
							c4.303,3.455,4.99,9.743,1.535,14.045c-6.966,8.676-14.396,17.165-22.082,25.231
							C2668.778,1351.209,2664.995,1352.143,2661.587,1351.241z M2713.455,1283.05c-0.885-0.234-1.751-0.596-2.576-1.089
							c-4.735-2.83-6.278-8.966-3.446-13.698c5.417-9.062,10.521-18.473,15.166-27.98c2.423-4.958,8.419-7.001,13.361-4.588
							c4.957,2.421,7.011,8.406,4.588,13.363c-4.891,10.008-10.263,19.917-15.968,29.456
							C2722.242,1282.424,2717.649,1284.16,2713.455,1283.05z M2749.05,1205.183c-0.198-0.052-0.396-0.113-0.593-0.177
							c-5.237-1.732-8.079-7.384-6.345-12.62c2.446-7.394,4.692-14.949,6.68-22.464c0.719-2.72,1.406-5.445,2.063-8.165
							c1.296-5.364,6.693-8.664,12.055-7.367c5.455,1.205,8.66,6.69,7.367,12.052c-0.691,2.865-1.413,5.725-2.171,8.588
							c-2.09,7.903-4.455,15.855-7.029,23.63C2759.412,1203.702,2754.115,1206.523,2749.05,1205.183z"/>
						
							<linearGradient id="SVGID_00000135682094775652131500000005917657447840806329_" gradientUnits="userSpaceOnUse" x1="1620.8571" y1="493.1358" x2="1653.7092" y2="493.1358" gradientTransform="matrix(0.9668 0.2557 -0.2557 0.9668 622.8935 422.4379)">
							<stop  offset="0" style="stop-color:#4042E2"/>
							<stop  offset="1" style="stop-color:#4F52FF"/>
						</linearGradient>
						<path style="fill:url(#SVGID_00000135682094775652131500000005917657447840806329_);" d="M2082.177,1333.725
							c-1.92-0.508-3.707-1.59-5.082-3.221c-3.483-4.138-6.943-8.428-10.286-12.75c-3.377-4.365-2.575-10.639,1.789-14.013
							c4.365-3.374,10.636-2.58,14.013,1.789c3.176,4.106,6.464,8.18,9.77,12.11c3.553,4.217,3.012,10.52-1.209,14.073
							C2088.583,1333.89,2085.213,1334.528,2082.177,1333.725z"/>
					</g>
					<g>
						
							<linearGradient id="SVGID_00000020360091706990479160000009722388126981027969_" gradientUnits="userSpaceOnUse" x1="3220.1926" y1="770.2371" x2="1126.787" y2="-148.8172" gradientTransform="matrix(0.9668 0.2557 -0.2557 0.9668 622.8935 422.4379)">
							<stop  offset="0" style="stop-color:#4042E2"/>
							<stop  offset="1" style="stop-color:#4F52FF"/>
						</linearGradient>
						<path style="fill:url(#SVGID_00000020360091706990479160000009722388126981027969_);" d="M2124.835,1225.156
							c0.823,1.813,2.706,2.906,4.689,2.719l56.575-5.324c16.186,21.03,35.842,39.631,58.541,54.816l-1.559,56.767
							c-0.055,1.992,1.16,3.798,3.024,4.499l63.804,23.981c1.865,0.7,3.969,0.14,5.239-1.392l36.217-43.741
							c27.082,3.524,54.123,2.475,80.153-2.689l39.064,41.27c1.369,1.446,3.505,1.865,5.319,1.042l62.073-28.159
							c1.815-0.824,2.907-2.707,2.719-4.689l-5.323-56.575c21.03-16.186,39.631-35.842,54.816-58.541l56.768,1.559
							c1.991,0.055,3.797-1.159,4.498-3.024l23.981-63.805c0.701-1.864,0.142-3.968-1.393-5.238l-43.741-36.218
							c3.525-27.082,2.476-54.123-2.688-80.153l41.271-39.064c1.445-1.369,1.865-3.505,1.042-5.319l-28.159-62.073
							c-0.822-1.815-2.706-2.906-4.689-2.72l-56.576,5.324c-16.185-21.031-35.841-39.631-58.54-54.816l1.559-56.769
							c0.054-1.991-1.16-3.797-3.024-4.499l-63.805-23.98c-1.865-0.702-3.968-0.142-5.239,1.393l-36.217,43.741
							c-27.082-3.526-54.123-2.476-80.154,2.688l-39.063-41.27c-1.369-1.447-3.506-1.866-5.32-1.043l-62.073,28.16
							c-1.814,0.823-2.906,2.706-2.72,4.689l5.324,56.575c-21.031,16.185-39.631,35.842-54.816,58.541l-56.768-1.559
							c-1.99-0.055-3.798,1.16-4.498,3.025l-23.981,63.803c-0.701,1.865-0.142,3.968,1.392,5.239l43.741,36.217
							c-3.524,27.081-2.475,54.122,2.688,80.153l-41.27,39.064c-1.447,1.369-1.865,3.505-1.043,5.32L2124.835,1225.156z"/>
						<g>
							<path style="fill:#91B3FA;" d="M2365.736,1136.711c-32.288-8.54-54.369-39.748-50.52-73.903
								c4.233-37.544,38.216-64.641,75.758-60.411c18.189,2.046,34.488,11.059,45.894,25.365
								c11.411,14.307,16.567,32.204,14.515,50.39c-4.232,37.545-38.216,64.641-75.757,60.411
								C2372.241,1138.181,2368.937,1137.557,2365.736,1136.711z M2396.841,1019.715c-2.494-0.659-5.048-1.141-7.658-1.436
								c-28.782-3.245-54.84,17.536-58.085,46.317c-3.244,28.784,17.525,54.851,46.318,58.087
								c28.782,3.245,54.84-17.536,58.084-46.316c1.572-13.946-2.38-27.665-11.129-38.637
								C2417.26,1028.813,2407.67,1022.579,2396.841,1019.715z"/>
						</g>
						<path style="fill:#91B3FA;" d="M2341.788,1232.738c-5.545-1.467-11.049-3.221-16.492-5.266l0,0
							c-1.713-0.643-3.416-1.315-5.109-2.013c-8.342-3.446-16.397-7.549-24.04-12.247c-0.104-0.064-0.208-0.128-0.313-0.191
							c-0.295-0.183-0.589-0.366-0.883-0.553c-0.573-0.358-1.143-0.722-1.711-1.086c-1.494-0.96-2.133-2.748-1.704-4.378
							c0.104-0.396,0.274-0.783,0.507-1.146c1.194-1.856,3.666-2.385,5.521-1.196c9.549,6.146,19.824,11.302,30.542,15.327
							c53.227,20.015,110.532,9.791,152.957-22.047c23.599-17.706,42.593-42.103,53.719-71.709
							c1.952-5.191,3.628-10.443,5.025-15.733c9.411-35.598,6.318-73.037-9.099-107.02c-17.708-39.036-49.558-68.841-89.681-83.921
							c-82.869-31.136-175.546,10.931-206.676,93.757c-1.92,5.107-3.573,10.292-4.957,15.532
							c-6.002,22.708-6.968,46.476-2.746,69.603c0.109,0.598,0.08,1.187-0.068,1.738c-0.383,1.449-1.572,2.623-3.145,2.909
							c-2.174,0.39-4.255-1.036-4.649-3.215c-4.432-24.28-3.42-49.236,2.881-73.075c1.453-5.501,3.189-10.942,5.202-16.303
							c32.683-86.96,130.04-131.1,216.969-98.429c42.124,15.831,75.557,47.12,94.147,88.101
							c16.187,35.676,19.432,74.98,9.554,112.351c-1.469,5.553-3.228,11.066-5.274,16.514
							c-15.834,42.125-47.121,75.561-88.101,94.152C2418.48,1239.383,2379.165,1242.624,2341.788,1232.738z"/>
					</g>
				</g>
				<g>
					<g style="opacity:0.3;">
						
							<linearGradient id="SVGID_00000142134795312311139620000001384335845069820310_" gradientUnits="userSpaceOnUse" x1="1129.3984" y1="480.0462" x2="1145.6392" y2="480.0462" gradientTransform="matrix(0.9668 0.2557 -0.2557 0.9668 622.8935 422.4379)">
							<stop  offset="0" style="stop-color:#4042E2"/>
							<stop  offset="1" style="stop-color:#4F52FF"/>
						</linearGradient>
						<path style="fill:url(#SVGID_00000142134795312311139620000001384335845069820310_);" d="M1598.295,1191.087
							c-2.58-0.682-4.512-2.994-4.587-5.8c-0.142-5.236-0.127-10.548,0.046-15.787c0.112-3.405,2.962-6.072,6.37-5.963
							c3.411,0.099,6.075,2.965,5.963,6.37c-0.165,4.992-0.179,10.055-0.045,15.052c0.094,3.403-2.594,6.238-6.001,6.334
							C1599.436,1191.307,1598.851,1191.234,1598.295,1191.087z"/>
						
							<linearGradient id="SVGID_00000009572555571749283280000006818971417711837841_" gradientUnits="userSpaceOnUse" x1="1122.8235" y1="297.5953" x2="1441.1246" y2="297.5953" gradientTransform="matrix(0.9668 0.2557 -0.2557 0.9668 622.8935 422.4379)">
							<stop  offset="0" style="stop-color:#4042E2"/>
							<stop  offset="1" style="stop-color:#4F52FF"/>
						</linearGradient>
						<path style="fill:url(#SVGID_00000009572555571749283280000006818971417711837841_);" d="M1601.375,1143.725
							c-3.023-0.8-5.01-3.774-4.509-6.926c1.408-8.908,3.292-17.846,5.597-26.56c0.485-1.835,0.993-3.67,1.519-5.507
							c0.945-3.277,4.503-4.998,7.635-4.232c3.275,0.941,5.167,4.359,4.229,7.632c-0.504,1.755-0.991,3.509-1.454,5.262
							c-2.198,8.313-3.995,16.837-5.341,25.331c-0.532,3.368-3.691,5.662-7.057,5.133
							C1601.784,1143.82,1601.577,1143.778,1601.375,1143.725z M1619.063,1082.151c-0.282-0.075-0.566-0.168-0.841-0.284
							c-3.137-1.335-4.601-4.957-3.269-8.094c4.27-10.065,9.204-19.953,14.662-29.385c1.706-2.952,5.493-3.944,8.43-2.251
							c2.951,1.709,3.957,5.478,2.251,8.429c-5.207,9-9.911,18.432-13.986,28.031
							C1625.096,1081.454,1621.981,1082.923,1619.063,1082.151z M1651.153,1026.706c-0.757-0.2-1.487-0.55-2.15-1.049
							c-2.715-2.058-3.243-5.931-1.184-8.646c6.6-8.694,13.815-17.076,21.449-24.897c2.382-2.443,6.277-2.491,8.725-0.105
							c2.438,2.378,2.485,6.286,0.108,8.723c-7.28,7.461-14.16,15.445-20.451,23.74
							C1656.091,1026.523,1653.498,1027.326,1651.153,1026.706z M1695.895,980.845c-1.235-0.327-2.377-1.04-3.238-2.109
							c-2.126-2.662-1.693-6.549,0.969-8.675c8.546-6.826,17.587-13.179,26.88-18.886c2.905-1.781,6.704-0.863,8.484,2.032
							c1.785,2.902,0.876,6.701-2.03,8.488c-8.857,5.436-17.485,11.499-25.632,18.007
							C1699.741,980.971,1697.72,981.328,1695.895,980.845z M1750.478,947.304c-1.724-0.456-3.24-1.655-4.039-3.405
							c-1.414-3.097-0.048-6.756,3.05-8.174c9.937-4.533,20.247-8.5,30.645-11.783c3.253-1.034,6.717,0.773,7.742,4.024
							c1.026,3.25-0.777,6.719-4.023,7.742c-9.922,3.135-19.757,6.916-29.238,11.245
							C1753.265,947.567,1751.809,947.656,1750.478,947.304z M1811.54,928.029c-2.234-0.591-4.043-2.422-4.492-4.847
							c-0.619-3.349,1.596-6.564,4.946-7.187c10.74-1.984,21.706-3.315,32.588-3.952c3.412-0.188,6.32,2.401,6.521,5.801
							c0.2,3.4-2.398,6.321-5.797,6.519c-10.379,0.608-20.829,1.876-31.068,3.768
							C1813.309,928.303,1812.394,928.255,1811.54,928.029z M1875.445,924.269c-2.796-0.739-4.77-3.374-4.574-6.364
							c0.223-3.4,3.16-5.976,6.561-5.756c10.863,0.71,21.822,2.113,32.579,4.166c3.343,0.697,5.543,3.879,4.901,7.223
							c-0.639,3.346-3.871,5.54-7.218,4.903c-10.26-1.966-20.713-3.303-31.07-3.979
							C1876.218,924.437,1875.824,924.369,1875.445,924.269z M1968.254,948.006c-0.344-0.091-0.688-0.213-1.024-0.37
							c-8.16-3.785-16.671-7.189-25.298-10.119c-1.305-0.451-2.591-0.879-3.879-1.288c-3.245-1.045-5.032-4.516-3.99-7.761
							c1.038-3.253,4.563-5.125,7.759-3.994c1.372,0.444,2.74,0.893,4.107,1.367c9.012,3.063,17.935,6.632,26.491,10.603
							c3.092,1.435,4.435,5.1,3,8.192C1974.145,947.389,1971.094,948.757,1968.254,948.006z"/>
					</g>
					<g style="opacity:0.3;">
						
							<linearGradient id="SVGID_00000099622036651601822120000000037582330695049868_" gradientUnits="userSpaceOnUse" x1="1264.8774" y1="602.7322" x2="1628.1697" y2="602.7322" gradientTransform="matrix(0.9668 0.2557 -0.2557 0.9668 622.8935 422.4379)">
							<stop  offset="0" style="stop-color:#4042E2"/>
							<stop  offset="1" style="stop-color:#4F52FF"/>
						</linearGradient>
						<path style="fill:url(#SVGID_00000099622036651601822120000000037582330695049868_);" d="M1795.531,1436.665
							c-3.256-0.861-5.225-4.187-4.404-7.466c0.827-3.303,4.179-5.314,7.484-4.484c9.951,2.495,20.138,4.403,30.279,5.671
							c3.356,0.451,5.783,3.505,5.358,6.889c-0.424,3.384-3.51,5.778-6.889,5.358c-10.635-1.336-21.316-3.332-31.746-5.947
							C1795.586,1436.68,1795.557,1436.672,1795.531,1436.665z M1765.429,1427.165c-0.216-0.057-0.425-0.125-0.637-0.206
							c-10.032-3.837-19.933-8.326-29.427-13.336c-3.012-1.594-4.167-5.321-2.576-8.335c1.59-3.02,5.336-4.154,8.336-2.582
							c9.059,4.783,18.506,9.064,28.079,12.73c3.182,1.215,4.774,4.784,3.556,7.965
							C1771.621,1426.378,1768.435,1427.96,1765.429,1427.165z M1858.044,1444.474c-2.645-0.699-4.593-3.11-4.59-5.976
							c0.005-3.402,2.77-6.161,6.178-6.156c10.265,0.01,20.614-0.599,30.766-1.823c3.391-0.393,6.456,2.007,6.86,5.392
							c0.409,3.38-2.006,6.456-5.389,6.864c-10.641,1.28-21.492,1.919-32.252,1.903
							C1859.071,1444.677,1858.545,1444.606,1858.044,1444.474z M1709.702,1397.704c-0.678-0.179-1.338-0.478-1.949-0.902
							c-8.821-6.141-17.351-12.891-25.349-20.061c-2.539-2.274-2.751-6.175-0.478-8.715c2.27-2.528,6.172-2.742,8.711-0.475
							c7.628,6.835,15.759,13.267,24.169,19.125c2.795,1.948,3.484,5.795,1.536,8.589
							C1714.821,1397.45,1712.137,1398.348,1709.702,1397.704z M1920.585,1436.938c-2.111-0.558-3.862-2.224-4.418-4.49
							c-0.816-3.313,1.208-6.654,4.515-7.469c9.943-2.443,19.837-5.523,29.416-9.16c3.191-1.213,6.751,0.396,7.959,3.582
							c1.208,3.186-0.396,6.751-3.582,7.959c-10.044,3.807-20.419,7.039-30.842,9.605
							C1922.593,1437.22,1921.549,1437.193,1920.585,1436.938z M1979.496,1414.62c-1.616-0.427-3.052-1.505-3.889-3.098
							c-1.583-3.018-0.421-6.749,2.596-8.331c9.089-4.77,17.968-10.131,26.386-15.932c2.809-1.937,6.653-1.226,8.583,1.578
							c1.935,2.805,1.228,6.644-1.576,8.577c-8.827,6.085-18.133,11.708-27.657,16.705
							C1982.516,1414.864,1980.934,1415,1979.496,1414.62z M2031.368,1378.828c-1.135-0.3-2.199-0.924-3.035-1.874
							c-2.262-2.549-2.024-6.45,0.527-8.711c7.685-6.799,15.016-14.134,21.789-21.797c2.256-2.545,6.157-2.791,8.708-0.533
							c2.553,2.258,2.794,6.155,0.535,8.711c-7.104,8.031-14.792,15.727-22.85,22.863
							C2035.435,1378.907,2033.296,1379.338,2031.368,1378.828z"/>
						
							<linearGradient id="SVGID_00000181083829931659944410000012038917326465514406_" gradientUnits="userSpaceOnUse" x1="1224.9408" y1="625.4573" x2="1249.7866" y2="625.4573" gradientTransform="matrix(0.9668 0.2557 -0.2557 0.9668 622.8935 422.4379)">
							<stop  offset="0" style="stop-color:#4042E2"/>
							<stop  offset="1" style="stop-color:#4F52FF"/>
						</linearGradient>
						<path style="fill:url(#SVGID_00000181083829931659944410000012038917326465514406_);" d="M1662.558,1355.438
							c-1.151-0.304-2.225-0.944-3.067-1.908c-3.473-3.979-6.841-8.079-10.018-12.185c-2.083-2.695-1.59-6.572,1.105-8.658
							c2.696-2.073,6.568-1.585,8.658,1.106c3.027,3.917,6.244,7.828,9.555,11.627c2.241,2.568,1.973,6.467-0.594,8.705
							C1666.593,1355.521,1664.471,1355.944,1662.558,1355.438z"/>
					</g>
					<g>
						
							<linearGradient id="SVGID_00000030449084861361145050000011902236759147327909_" gradientUnits="userSpaceOnUse" x1="3055.9548" y1="1143.7732" x2="962.5508" y2="224.7197" gradientTransform="matrix(0.9668 0.2557 -0.2557 0.9668 622.8935 422.4379)">
							<stop  offset="0" style="stop-color:#4042E2"/>
							<stop  offset="1" style="stop-color:#4F52FF"/>
						</linearGradient>
						<path style="fill:url(#SVGID_00000030449084861361145050000011902236759147327909_);" d="M1687.897,1279.693
							c0.55,1.213,1.811,1.945,3.137,1.82l37.858-3.563c10.831,14.072,23.983,26.519,39.172,36.681l-1.043,37.986
							c-0.037,1.332,0.776,2.541,2.024,3.01l42.694,16.047c1.248,0.469,2.656,0.094,3.506-0.932l24.235-29.27
							c18.122,2.358,36.217,1.657,53.635-1.799l26.139,27.616c0.917,0.967,2.346,1.248,3.56,0.697l41.536-18.843
							c1.214-0.551,1.945-1.811,1.82-3.138l-3.563-37.857c14.073-10.83,26.52-23.984,36.681-39.173l37.986,1.044
							c1.332,0.036,2.541-0.776,3.01-2.023l16.047-42.695c0.469-1.248,0.095-2.656-0.932-3.505l-29.27-24.235
							c2.359-18.122,1.656-36.217-1.799-53.635l27.617-26.14c0.967-0.916,1.248-2.345,0.697-3.559l-18.843-41.537
							c-0.55-1.214-1.811-1.944-3.137-1.82l-37.858,3.563c-10.83-14.073-23.983-26.519-39.172-36.681l1.043-37.987
							c0.036-1.332-0.775-2.541-2.023-3.01l-42.695-16.047c-1.247-0.469-2.655-0.095-3.505,0.932l-24.235,29.27
							c-18.122-2.359-36.217-1.657-53.636,1.799l-26.139-27.615c-0.916-0.969-2.346-1.249-3.56-0.698l-41.536,18.843
							c-1.213,0.551-1.945,1.811-1.82,3.138l3.562,37.857c-14.073,10.83-26.519,23.984-36.68,39.173l-37.987-1.044
							c-1.331-0.037-2.541,0.776-3.009,2.024l-16.047,42.694c-0.469,1.248-0.095,2.655,0.932,3.506l29.27,24.235
							c-2.358,18.122-1.657,36.216,1.798,53.634l-27.616,26.14c-0.968,0.916-1.248,2.345-0.698,3.56L1687.897,1279.693z"/>
						<g>
							<path style="fill:#91B3FA;" d="M1848.819,1221.292c-9.622-2.545-18.143-8.083-24.461-16.005
								c-7.771-9.746-11.281-21.937-9.884-34.325c2.879-25.565,26.025-44.024,51.599-41.149
								c25.601,2.932,44.033,26.037,41.151,51.606c-1.395,12.39-7.532,23.493-17.278,31.261
								c-9.747,7.775-21.938,11.287-34.328,9.886C1853.304,1222.304,1851.031,1221.876,1848.819,1221.292z M1869.647,1143.004
								c-1.605-0.424-3.258-0.737-4.955-0.93c-18.811-2.115-35.836,11.463-37.956,30.273c-1.025,9.109,1.554,18.08,7.271,25.245
								c5.72,7.172,13.887,11.675,22.998,12.714l0,0c9.112,1.026,18.081-1.557,25.248-7.271c7.172-5.72,11.685-13.886,12.712-23.002
								C1896.893,1162.925,1885.826,1147.283,1869.647,1143.004z"/>
						</g>
						<path style="fill:#91B3FA;" d="M1832.064,1288.11c-3.775-0.998-7.527-2.197-11.259-3.595
							c-7.407-2.782-14.539-6.32-21.213-10.528c-0.299-0.191-0.597-0.382-0.896-0.574c-2.307-1.483-3.294-4.243-2.631-6.76
							c0.162-0.611,0.423-1.209,0.782-1.768c1.843-2.866,5.659-3.677,8.525-1.846c6.194,3.988,12.846,7.324,19.769,9.922
							l0.003,0.001c0.379,0.144,0.763,0.282,1.142,0.42c16.441,6,33.754,7.675,50.615,5.154c9.153-1.369,18.177-3.981,26.856-7.824
							c0.071-0.031,0.141-0.062,0.212-0.094c0.216-0.099,0.431-0.192,0.644-0.291c25.27-11.466,44.565-32.083,54.327-58.059
							c1.266-3.361,2.349-6.759,3.254-10.183c6.092-23.045,4.088-47.283-5.891-69.286c-11.466-25.27-32.086-44.56-58.058-54.321
							c-25.961-9.746-54.198-8.825-79.469,2.634c-25.27,11.465-44.565,32.083-54.327,58.059c-1.245,3.304-2.313,6.662-3.21,10.052
							c-3.886,14.703-4.511,30.088-1.777,45.058c0.167,0.923,0.123,1.834-0.105,2.683c-0.592,2.237-2.427,4.051-4.856,4.493
							c-3.354,0.603-6.566-1.606-7.179-4.965c-3.058-16.751-2.359-33.968,1.984-50.413c1.005-3.798,2.2-7.552,3.589-11.248
							c10.925-29.064,32.51-52.131,60.786-64.957c28.271-12.822,59.836-13.897,88.904-2.949
							c29.062,10.921,52.129,32.503,64.953,60.781c11.169,24.612,13.408,51.729,6.592,77.512c-1.012,3.827-2.224,7.633-3.636,11.391
							C1949.344,1272.871,1888.968,1303.16,1832.064,1288.11z"/>
					</g>
				</g>
			</g>
			<g>
				
					<linearGradient id="SVGID_00000016073055360703986580000005892086090880828318_" gradientUnits="userSpaceOnUse" x1="1261.7317" y1="2637.0889" x2="3431.2129" y2="978.6891">
					<stop  offset="0" style="stop-color:#FE7062"/>
					<stop  offset="1" style="stop-color:#FF928E"/>
				</linearGradient>
				<path style="fill:url(#SVGID_00000016073055360703986580000005892086090880828318_);" d="M3226.49,2890.554H739.256
					c-16.542,0-29.952-13.41-29.952-29.952V1320.804c0-27.76,22.504-50.263,50.263-50.263h2443.803
					c29.95,0,54.229,24.279,54.229,54.229v1534.674C3257.6,2876.625,3243.671,2890.554,3226.49,2890.554z"/>
				<g style="opacity:0.59;">
					<path style="fill:#FFFFFF;" d="M1851.352,1338.89c-3.438,0-6.263-2.755-6.325-6.21c-0.069-3.498,2.712-6.385,6.206-6.451
						l240.505-4.588c3.557-0.155,6.385,2.708,6.451,6.206c0.069,3.498-2.712,6.385-6.206,6.451l-240.505,4.588
						C1851.435,1338.89,1851.395,1338.89,1851.352,1338.89z"/>
				</g>
				<g style="opacity:0.59;">
					<path style="fill:#FFFFFF;" d="M1309.994,1349.215c-3.438,0-6.259-2.755-6.325-6.21c-0.069-3.498,2.712-6.385,6.206-6.451
						l470.926-8.984c3.584-0.192,6.385,2.708,6.451,6.206c0.069,3.498-2.712,6.385-6.206,6.451l-470.926,8.984
						C1310.076,1349.215,1310.037,1349.215,1309.994,1349.215z"/>
				</g>
				<g style="opacity:0.59;">
					<path style="fill:#FFFFFF;" d="M788.853,1650.485c-0.003,0-0.007,0-0.01,0c-3.498-0.007-6.328-2.847-6.322-6.342l0.383-215.687
						c0.082-45.135,36.861-82.554,81.983-83.413l273.313-5.212c3.481-0.132,6.385,2.708,6.451,6.206
						c0.069,3.498-2.712,6.385-6.206,6.451l-273.313,5.212c-38.288,0.733-69.494,32.481-69.564,70.776l-0.383,215.687
						C795.178,1647.658,792.344,1650.485,788.853,1650.485z"/>
				</g>
			</g>
		</g>
		<g>
			<path style="fill:#FFFFFF;" d="M1436.041,1754.97c287.125-273.584,569.339-331.276,926.459-243.975
				c23.11,5.649,40.898,24.111,45.543,47.443l2.691,13.519c8.225,41.316-26.877,78.369-68.575,72.372
				c-302.038-43.442-523.522-53.354-824.677,201.601c-33.148,28.063-84.202,13.351-97.497-27.996v0
				C1412.807,1795.608,1419.063,1771.147,1436.041,1754.97z"/>
			<path style="fill:#FFFFFF;" d="M1461.023,1584.994l-119.479,307.711c-3.639,9.372,4.039,19.237,14.018,18.009l315.202-38.762
				c11.728-1.442,17.538-15.002,10.493-24.488c-94.02-79.53-158-168.617-197.236-265.576
				C1477.802,1573.517,1464.797,1575.272,1461.023,1584.994z"/>
		</g>
		<g>
			<path style="fill:#FFFFFF;" d="M2335.954,2327.374c-306.423,251.781-592.11,288.613-941.862,175.347
				c-22.633-7.33-39.019-27.047-41.94-50.656l-1.692-13.68c-5.172-41.808,32.554-76.186,73.7-67.146
				c298.037,65.484,518.196,91.619,837.246-140.554c35.117-25.555,84.955-7.137,95.18,35.073l0,0
				C2362.107,2288.55,2354.073,2312.486,2335.954,2327.374z"/>
			<path style="fill:#FFFFFF;" d="M2298.569,2495.059l141.732-298.116c4.317-9.08-2.617-19.481-12.658-18.989l-317.197,15.533
				c-11.802,0.578-18.591,13.675-12.261,23.652c87.931,86.214,145.203,179.754,177.22,279.331
				C2280.993,2505.274,2294.091,2504.477,2298.569,2495.059z"/>
		</g>
		<g>
			
				<linearGradient id="SVGID_00000168813901434578124750000012933814975115382682_" gradientUnits="userSpaceOnUse" x1="4294.2949" y1="2406.9395" x2="4447.7769" y2="2406.9395" gradientTransform="matrix(1 0 0 1 -3618.8867 0)">
				<stop  offset="0" style="stop-color:#FF928E"/>
				<stop  offset="1" style="stop-color:#FEB3B1"/>
			</linearGradient>
			<path style="fill:url(#SVGID_00000168813901434578124750000012933814975115382682_);" d="M730.651,2327.837
				c-15.745,16.806-38.929,31.329-55.243,40.385c24.363,30.115,57.33,60.273,100.972,89.791l12.49,28.029l40.02-47.964
				C828.89,2438.077,757.081,2402.342,730.651,2327.837z"/>
			
				<linearGradient id="SVGID_00000099620557996599632590000001252380807005211069_" gradientUnits="userSpaceOnUse" x1="4503.0645" y1="2888.0461" x2="4506.9141" y2="3311.4668" gradientTransform="matrix(1 0 0 1 -3618.8867 0)">
				<stop  offset="0" style="stop-color:#4042E2"/>
				<stop  offset="1" style="stop-color:#4F52FF"/>
			</linearGradient>
			<path style="fill:url(#SVGID_00000099620557996599632590000001252380807005211069_);" d="M944.818,3237.551
				c0.013-0.857-0.043-1.725-0.263-2.6c-12.963-51.389-77.298-83.398-77.298-83.398l-25.494,1.998
				c-14.659,45.294-12.774,73.074-10.421,85.447c0.065,0.347,0.17,0.677,0.263,1.012
				C852.636,3241.889,895.921,3243.116,944.818,3237.551z"/>
			
				<linearGradient id="SVGID_00000125594797393023808200000005235147218548581041_" gradientUnits="userSpaceOnUse" x1="4484.9946" y1="3577.3391" x2="4457.9365" y2="3991.6646" gradientTransform="matrix(1 0 0 1 -3618.8867 0)">
				<stop  offset="0" style="stop-color:#09005D"/>
				<stop  offset="1" style="stop-color:#1A0F91"/>
			</linearGradient>
			<path style="fill:url(#SVGID_00000125594797393023808200000005235147218548581041_);" d="M831.605,3240.01
				c1.135,4.132,4.186,7.349,8.09,8.17c29.916,6.291,77.463,1.228,97.426-1.382c4.405-0.576,7.624-4.649,7.697-9.248
				C895.921,3243.116,852.636,3241.889,831.605,3240.01z"/>
			
				<linearGradient id="SVGID_00000010271116757458871010000016261053294332777350_" gradientUnits="userSpaceOnUse" x1="4480.624" y1="3065.5496" x2="4458.6401" y2="3257.4102" gradientTransform="matrix(1 0 0 1 -3618.8867 0)">
				<stop  offset="0" style="stop-color:#FF928E"/>
				<stop  offset="1" style="stop-color:#FEB3B1"/>
			</linearGradient>
			<path style="fill:url(#SVGID_00000010271116757458871010000016261053294332777350_);" d="M831.512,3115.579l10.797,51.979
				c0.791,3.808,3.718,6.661,7.263,6.994c4.339,0.408,10.516,0.646,16.728-0.267c5.57-0.819,9.449-6.479,8.462-12.554l-7.505-46.153
				H831.512z"/>
			
				<linearGradient id="SVGID_00000144308941146223857990000002669850228919549081_" gradientUnits="userSpaceOnUse" x1="4683.8872" y1="3590.3293" x2="4656.8286" y2="4004.657" gradientTransform="matrix(1 0 0 1 -3618.8867 0)">
				<stop  offset="0" style="stop-color:#09005D"/>
				<stop  offset="1" style="stop-color:#1A0F91"/>
			</linearGradient>
			<path style="fill:url(#SVGID_00000144308941146223857990000002669850228919549081_);" d="M1055.228,3239.489
				c-28.156-0.789-42.719-4.104-50.247-7.182c-0.018,2.8-0.002,5.649,0.089,8.602c0.097,3.152,2.432,5.671,5.305,5.653
				l154.594-0.998c4.933-0.033,7.817-5.754,5.678-10.277C1150.377,3236.96,1098.753,3240.707,1055.228,3239.489z"/>
			
				<linearGradient id="SVGID_00000025406559112312949620000008373658595532124084_" gradientUnits="userSpaceOnUse" x1="4703.541" y1="2886.2239" x2="4707.3906" y2="3309.6436" gradientTransform="matrix(1 0 0 1 -3618.8867 0)">
				<stop  offset="0" style="stop-color:#4042E2"/>
				<stop  offset="1" style="stop-color:#4F52FF"/>
			</linearGradient>
			<path style="fill:url(#SVGID_00000025406559112312949620000008373658595532124084_);" d="M1170.648,3235.286
				c-0.187-0.394-0.347-0.795-0.612-1.166c-13.652-19.077-48.426-57.064-117.138-73.539l-32.963-1.041
				c0,0-14.678,25.512-14.954,72.768c7.528,3.078,22.092,6.393,50.247,7.182C1098.753,3240.707,1150.377,3236.96,1170.648,3235.286z
				"/>
			
				<linearGradient id="SVGID_00000008117143865110914950000016861012152995320217_" gradientUnits="userSpaceOnUse" x1="4659.6978" y1="3086.0693" x2="4637.7144" y2="3277.9272" gradientTransform="matrix(1 0 0 1 -3618.8867 0)">
				<stop  offset="0" style="stop-color:#FF928E"/>
				<stop  offset="1" style="stop-color:#FEB3B1"/>
			</linearGradient>
			<path style="fill:url(#SVGID_00000008117143865110914950000016861012152995320217_);" d="M1013.823,3109.583
				c0.366,2.457,4.884,39.801,6.633,54.28c0.416,3.44,2.907,6.104,6.05,6.478c5.613,0.671,14.696,1.281,22.642-0.347
				c4.287-0.879,7.39-4.997,7.39-9.786v-58.619L1013.823,3109.583z"/>
			
				<linearGradient id="SVGID_00000012431702142832232860000001178405541896974988_" gradientUnits="userSpaceOnUse" x1="4920.9028" y1="2208.7334" x2="4217.7822" y2="3299.7837" gradientTransform="matrix(1 0 0 1 -3618.8867 0)">
				<stop  offset="0" style="stop-color:#09005D"/>
				<stop  offset="1" style="stop-color:#1A0F91"/>
			</linearGradient>
			<path style="fill:url(#SVGID_00000012431702142832232860000001178405541896974988_);" d="M987.378,2428.085
				c0,0,79.504,302.145,78.066,682.364c-0.026,6.932-4.893,12.914-11.677,14.344c-9.996,2.105-24.69,4.605-36.855,4.264
				c-6.494-0.182-11.922-4.998-13.015-11.402c-11.148-65.375-75.122-433.66-111.571-493.45c0,0-23.981,328.012-16.316,498.187
				c0.19,4.232-2.909,7.901-7.116,8.388c-6.383,0.738-16.593,1.298-29.589-0.082c-4.932-0.524-8.912-4.253-9.617-9.163
				c-7.941-55.329-53.643-384.662-51.701-621.9c0.11-13.379,35.381-71.549,35.381-71.549H987.378z"/>
			
				<linearGradient id="SVGID_00000055700299504432960060000006347983898291678109_" gradientUnits="userSpaceOnUse" x1="3721.7302" y1="1994.2864" x2="3608.8208" y2="3099.8501" gradientTransform="matrix(1 0 0 1 -2851.1182 0)">
				<stop  offset="0" style="stop-color:#4042E2"/>
				<stop  offset="1" style="stop-color:#4F52FF"/>
			</linearGradient>
			<path style="fill:url(#SVGID_00000055700299504432960060000006347983898291678109_);" d="M1097.949,2062.415
				c-12.904-16.174-24.208-33.511-33.663-51.375c-13.206-24.95-1.062,16.152-4.67-12.023
				c-98.895-71.365-247.812-35.243-305.414-27.987c-18.887,2.38-36.161,11.691-48.608,26.096
				c-49.36,57.122-157.673,213.511-30.185,371.097c16.314-9.055,39.497-23.579,55.243-40.385
				c-14.104-39.76-15.26-90.57,14.3-152.876c1.01,4.939,2.259,9.828,3.776,14.64c40.741,129.07,42.915,236.478,42.824,261.232
				c-0.013,3.361,2.006,6.387,5.127,7.639c53.62,21.486,156.836,8.698,191.483,3.535c6.353-0.948,10.627-6.862,9.749-13.224
				c-17.005-123.196,70.266-325.859,93.316-376.62C1092.883,2068.511,1095.176,2065.224,1097.949,2062.415z"/>
			
				<linearGradient id="SVGID_00000010275437694507902890000016065709022104145553_" gradientUnits="userSpaceOnUse" x1="4529.1904" y1="1839.047" x2="4445.252" y2="2201.7805" gradientTransform="matrix(1 0 0 1 -3618.8867 0)">
				<stop  offset="0" style="stop-color:#FF928E"/>
				<stop  offset="1" style="stop-color:#FEB3B1"/>
			</linearGradient>
			<path style="fill:url(#SVGID_00000010275437694507902890000016065709022104145553_);" d="M846.878,1867.293l-10.334,105.581
				c0,0,59.395,17.89,102.594-12.591l-30.368-95.957L846.878,1867.293z"/>
			<g>
				
					<linearGradient id="SVGID_00000080891986503222648250000005516205515410739131_" gradientUnits="userSpaceOnUse" x1="1358.2495" y1="1616.848" x2="967.6016" y2="1791.0331">
					<stop  offset="0" style="stop-color:#FF928E"/>
					<stop  offset="1" style="stop-color:#FEB3B1"/>
				</linearGradient>
				<path style="fill:url(#SVGID_00000080891986503222648250000005516205515410739131_);" d="M915.796,1746.956
					c1.43,1.345,60.331,117.014,60.331,117.014l-66.759,32.228l-72.114-101.335C837.254,1794.863,891.865,1724.428,915.796,1746.956
					z"/>
				
					<linearGradient id="SVGID_00000004508316281907139240000001484931907575851664_" gradientUnits="userSpaceOnUse" x1="1727.5731" y1="2659.9348" x2="1905.457" y2="2659.9348" gradientTransform="matrix(0.6854 -0.7281 0.7281 0.6854 -2267.8877 1318.7853)">
					<stop  offset="0" style="stop-color:#09005D"/>
					<stop  offset="1" style="stop-color:#1A0F91"/>
				</linearGradient>
				<path style="fill:url(#SVGID_00000004508316281907139240000001484931907575851664_);" d="M866.791,1797.668
					c-1.19,3.081-0.897,6.52,0.802,9.353l33.296,55.504c0.506,0.842,1.107,1.603,1.826,2.272c3.963,3.69,17.525,14.42,28.008-0.19
					c8.936-12.452,17.32-23.772,26.304-28.441c5.245-2.727,11.702-0.549,14.366,4.729c5.485,10.873,16.111,33.037,22.787,54.053
					c1.673,5.268-1.046,10.923-6.169,12.999c-13.518,5.477-40.234,15.382-63.943,18.653c-3.894,0.538-7.75-1.105-10.068-4.281
					c-10.2-13.973-38.948-53.023-48.76-62.797c-9.115-9.081-25.94-5.657-33.52-3.479c-2.878,0.828-5.942,0.429-8.507-1.116
					c-7.692-4.633-21.114-16.169-8.836-35.702c3.053-4.856,1.497-11.326-3.297-14.478c-8.586-5.649-17.906-16.252-9.027-33.423
					c8.987-17.383,25.037-18.943,35.967-17.607c4.837,0.591,9.747-1.945,11.602-6.45c0.825-2.004,2.457-3.712,5.495-4.328
					c5.729-1.162,9.49-6.401,8.365-12.138c-1.927-9.838-0.476-22.616,15.229-31.251c28.805-15.837,54.037,9.969,60.452,31.752
					c6.417,21.785-25.789,37.179-46.048,39.748C878.234,1772.938,870.074,1789.18,866.791,1797.668z"/>
				
					<linearGradient id="SVGID_00000009549691774112042850000001453752526019841409_" gradientUnits="userSpaceOnUse" x1="1623.1992" y1="2768.6362" x2="1742.6421" y2="2646.0908" gradientTransform="matrix(0.6854 -0.7281 0.7281 0.6854 -2267.8877 1318.7853)">
					<stop  offset="0" style="stop-color:#FF928E"/>
					<stop  offset="1" style="stop-color:#FEB3B1"/>
				</linearGradient>
				<path style="fill:url(#SVGID_00000009549691774112042850000001453752526019841409_);" d="M877.745,1879.906
					c0,0-12.808-37.478-29.204-36.102c-16.396,1.376-29.3,17.709-8.981,36.07C864.836,1902.712,877.745,1879.906,877.745,1879.906z"
					/>
			</g>
			
				<linearGradient id="SVGID_00000008858711480405587590000008747943109832628915_" gradientUnits="userSpaceOnUse" x1="1927.5995" y1="1156.896" x2="912.9793" y2="1958.4449">
				<stop  offset="0" style="stop-color:#09005D"/>
				<stop  offset="1" style="stop-color:#1A0F91"/>
			</linearGradient>
			<path style="fill:url(#SVGID_00000008858711480405587590000008747943109832628915_);" d="M739.543,2165.308
				c-21.611-59.143-13.771-130.561-13.689-131.275l5.954,0.68c-0.078,0.702-7.752,70.749,13.367,128.536L739.543,2165.308z"/>
			
				<linearGradient id="SVGID_00000078025043391803206840000013818725545634383754_" gradientUnits="userSpaceOnUse" x1="1269.3514" y1="2070.3721" x2="782.3347" y2="2684.2156">
				<stop  offset="0" style="stop-color:#4042E2"/>
				<stop  offset="1" style="stop-color:#4F52FF"/>
			</linearGradient>
			<path style="fill:url(#SVGID_00000078025043391803206840000013818725545634383754_);" d="M889.404,2616.501
				c-1.332,0-2.55-0.894-2.898-2.245c-6.593-25.429-55.963-53.373-56.461-53.653c-1.443-0.809-1.958-2.636-1.147-4.081
				c0.81-1.443,2.628-1.96,4.08-1.147c2.122,1.19,52.099,29.48,59.33,57.377c0.416,1.603-0.548,3.239-2.149,3.653
				C889.907,2616.471,889.652,2616.501,889.404,2616.501z"/>
			<g>
				
					<linearGradient id="SVGID_00000016070999901402464770000014606446488089080989_" gradientUnits="userSpaceOnUse" x1="3978.9897" y1="2018.8313" x2="3858.1289" y2="3202.2542" gradientTransform="matrix(1 0 0 1 -2851.1182 0)">
					<stop  offset="0" style="stop-color:#4042E2"/>
					<stop  offset="1" style="stop-color:#4F52FF"/>
				</linearGradient>
				<path style="fill:url(#SVGID_00000016070999901402464770000014606446488089080989_);" d="M1298.691,2095.62
					c-111.851,16.783-184.753-53.792-239.076-96.603c-71.722-56.522-127.535-29.024-127.535-29.024l76.488,145.977
					c114.223,107.696,231.337,83.78,305.17,48.88C1314.874,2136.655,1307.339,2113.058,1298.691,2095.62z"/>
				
					<linearGradient id="SVGID_00000017485627942265514240000004324822536978471615_" gradientUnits="userSpaceOnUse" x1="2181.9512" y1="5971.8159" x2="2324.0049" y2="5701.2373" gradientTransform="matrix(1 0 0 1 -2851.1182 0)">
					<stop  offset="0" style="stop-color:#FF928E"/>
					<stop  offset="1" style="stop-color:#FEB3B1"/>
				</linearGradient>
				<path style="fill:url(#SVGID_00000017485627942265514240000004324822536978471615_);" d="M1455.897,2028.89l-37.093,19.96
					c-44.484,27.085-84.291,41.396-120.113,46.771c8.648,17.438,16.183,41.035,15.047,69.23c47-22.215,76.466-48.88,76.466-48.88
					C1474.231,2065.865,1455.897,2028.89,1455.897,2028.89z"/>
			</g>
			
				<linearGradient id="SVGID_00000037670055154498933720000007702675472860979842_" gradientUnits="userSpaceOnUse" x1="2270.8818" y1="6018.499" x2="2412.9353" y2="5747.9214" gradientTransform="matrix(1 0 0 1 -2851.1182 0)">
				<stop  offset="0" style="stop-color:#FF928E"/>
				<stop  offset="1" style="stop-color:#FEB3B1"/>
			</linearGradient>
			<path style="fill:url(#SVGID_00000037670055154498933720000007702675472860979842_);" d="M1565.169,2081.159
				c-2.395-7.96-8.28-14.4-15.993-17.502l-75.277-30.272c0,0-1.136-9.655,15.905-16.215c17.043-6.56,13.058-25.646,13.058-25.646
				s-23.281,10.62-57.367,27.465c-19.492,9.633-30.429,26.642-36.229,39.445l19.379,25.484
				c46.396,13.938,93.343,16.603,140.69,11.074L1565.169,2081.159z"/>
		</g>
		<g>
			
				<linearGradient id="SVGID_00000023258510542416737180000014886514475730582932_" gradientUnits="userSpaceOnUse" x1="2404.7166" y1="1555.0172" x2="2673.8853" y2="2162.7832">
				<stop  offset="0" style="stop-color:#C4421B"/>
				<stop  offset="1" style="stop-color:#5C0E16"/>
			</linearGradient>
			<path style="fill:url(#SVGID_00000023258510542416737180000014886514475730582932_);" d="M2421.506,1664.619l-0.876-29.155
				l30.475-60.511c5.574-11.069,5.618-24.116,0.117-35.222l-34.522-69.7c0,0-19.937,151.29-25.182,163.865
				c-5.245,12.574,14.225,35.166,14.225,35.166L2421.506,1664.619z"/>
			
				<linearGradient id="SVGID_00000080914147739782066450000008388394098171966651_" gradientUnits="userSpaceOnUse" x1="2945.1106" y1="2178.8372" x2="2721.8845" y2="1735.7664">
				<stop  offset="0" style="stop-color:#09005D"/>
				<stop  offset="1" style="stop-color:#1A0F91"/>
			</linearGradient>
			<path style="fill:url(#SVGID_00000080914147739782066450000008388394098171966651_);" d="M2759.715,1753.382
				c0,0,32.583,15.849,38.573,34.054c4.807,14.607,40.834,16.491,44.393,45.22c1.838,14.833,12.814,26.712,27.588,28.977
				c36.795,5.64,93.501,24.747,102.574,88.632c6.925,48.763-17.934,67.254-44.022,73.654c-19.161,4.701-31.895,23.338-28.019,42.683
				c3.718,18.555-1.826,40.005-33.971,56.967c-72.035,38.01-143.973-90.049-143.973-90.049l-14.743-223.6L2759.715,1753.382z"/>
			
				<linearGradient id="SVGID_00000037684349638803959780000012484913325512306586_" gradientUnits="userSpaceOnUse" x1="2409.4988" y1="1552.8993" x2="2678.6675" y2="2160.6653">
				<stop  offset="0" style="stop-color:#C4421B"/>
				<stop  offset="1" style="stop-color:#5C0E16"/>
			</linearGradient>
			<path style="fill:url(#SVGID_00000037684349638803959780000012484913325512306586_);" d="M2420.63,1635.464
				c0,0,92.691,252.682,250.628,331.656c0,0-52.567,85.77-80,90.971c0,0-168.718-215.94-185.918-392.854L2420.63,1635.464z"/>
			
				<linearGradient id="SVGID_00000137829395521068361480000014188156332798087863_" gradientUnits="userSpaceOnUse" x1="2818.1494" y1="3580.2739" x2="3196.9595" y2="3052.6453">
				<stop  offset="0" style="stop-color:#4042E2"/>
				<stop  offset="1" style="stop-color:#4F52FF"/>
			</linearGradient>
			<path style="fill:url(#SVGID_00000137829395521068361480000014188156332798087863_);" d="M3055.808,3155.426l4.662,38.321
				c4.853,18.213,28.298,64.101,58.389,61.114c18.514-1.838,20.743-55.93,18.164-64.043c-4.702-14.793-13.304-37-25.706-50.068
				h-42.51C3060.948,3140.749,3054.859,3147.624,3055.808,3155.426z"/>
			
				<linearGradient id="SVGID_00000002376733264624982200000000660482081628726421_" gradientUnits="userSpaceOnUse" x1="2709.416" y1="3498.2595" x2="2827.3525" y2="2119.8755">
				<stop  offset="0" style="stop-color:#C4421B"/>
				<stop  offset="1" style="stop-color:#5C0E16"/>
			</linearGradient>
			<path style="fill:url(#SVGID_00000002376733264624982200000000660482081628726421_);" d="M2722.858,2706.524l-7.175,42.207
				c0,0,24.027,243.379,28.301,340.73c0.67,15.262-3.278,30.346-11.289,43.354l-41.78,67.847l106.182-62.657l2.114-12.958
				l-17.382-23.899l22.768-272.645c1.337-16.016-1.967-32.079-9.52-46.267l-21.963-41.26L2722.858,2706.524z"/>
			
				<linearGradient id="SVGID_00000079480890319462377450000015854539987248603307_" gradientUnits="userSpaceOnUse" x1="2434.1694" y1="3528.2759" x2="2846.8018" y2="3085.2041">
				<stop  offset="0" style="stop-color:#4042E2"/>
				<stop  offset="1" style="stop-color:#4F52FF"/>
			</linearGradient>
			<path style="fill:url(#SVGID_00000079480890319462377450000015854539987248603307_);" d="M2683.923,3210.49h33.885
				c6.343,0,12.324-2.912,16.193-7.938c10.563-13.726,32.449-40.506,42.915-41.204c14.088-0.941,12.286,49.142,12.286,49.142h7.897
				l10.003-62.235c2.517-15.659-5.27-31.171-19.331-38.508l0,0c0,0-3.221,23.816-20.683,34.35
				c-17.461,10.535-71.058,48.261-71.058,48.261s-6.565-0.936-13.772,0.367C2671.565,3194.657,2673.058,3210.49,2683.923,3210.49z"
				/>
			
				<linearGradient id="SVGID_00000011018436789280390650000016674188775247358397_" gradientUnits="userSpaceOnUse" x1="2946.6523" y1="3518.7686" x2="3064.6196" y2="2140.0229">
				<stop  offset="0" style="stop-color:#C4421B"/>
				<stop  offset="1" style="stop-color:#5C0E16"/>
			</linearGradient>
			<path style="fill:url(#SVGID_00000011018436789280390650000016674188775247358397_);" d="M2868.293,2726.57
				c0,0,140.76,267.009,163.136,327.971c22.376,60.962,30.214,111.819,30.514,116.634c0.469,7.525,9.829,14.743,35.629,14.743
				c13.315,0,19.835-5.337,23.028-10.503c2.724-4.408,2.865-9.923,0.57-14.568c-8.142-16.479-33.982-69.139-43.552-93.023
				c-11.426-28.517-36.003-157.751-49.482-202.684c-13.479-44.933-28.715-93.674-87.413-138.57
				C2940.723,2726.57,2900.428,2687.105,2868.293,2726.57z"/>
			
				<linearGradient id="SVGID_00000127016307643166566000000003765931639213038230_" gradientUnits="userSpaceOnUse" x1="2829.8176" y1="1951.8795" x2="2307.2034" y2="2742.9927">
				<stop  offset="0" style="stop-color:#4042E2"/>
				<stop  offset="1" style="stop-color:#4F52FF"/>
			</linearGradient>
			<path style="fill:url(#SVGID_00000127016307643166566000000003765931639213038230_);" d="M2779.373,2289.063
				c-20.616-87.357,0.126-153.167,21.907-193.738c17.374-32.36,5.159-72.389-27.427-89.335
				c-50.927-26.484-102.595-38.87-102.595-38.87s-100.906,73.771-88.936,131.515c7.016,33.843,70.928,202.714,70.928,202.714
				S2712.349,2329.318,2779.373,2289.063z"/>
			
				<linearGradient id="SVGID_00000075131939118942040050000011448513318915347626_" gradientUnits="userSpaceOnUse" x1="2800.1543" y1="2514.5637" x2="2165.7173" y2="3370.0938">
				<stop  offset="0" style="stop-color:#09005D"/>
				<stop  offset="1" style="stop-color:#1A0F91"/>
			</linearGradient>
			<path style="fill:url(#SVGID_00000075131939118942040050000011448513318915347626_);" d="M2859.876,2365.234
				c-14.777-44.517-80.504-76.171-80.504-76.171c-67.024,40.255-126.123,12.286-126.123,12.286s-13.254,50.659-4.106,97.739
				c9.147,47.079,66.539,349.643,66.539,349.643c90.429,18.323,229.509-18.434,229.509-18.434
				C2887.592,2628.031,2874.653,2409.75,2859.876,2365.234z"/>
			
				<linearGradient id="SVGID_00000040544921131562316280000013015936055335368330_" gradientUnits="userSpaceOnUse" x1="2813.0447" y1="2256.0144" x2="2647.3152" y2="1687.7988">
				<stop  offset="0" style="stop-color:#C4421B"/>
				<stop  offset="1" style="stop-color:#5C0E16"/>
			</linearGradient>
			<path style="fill:url(#SVGID_00000040544921131562316280000013015936055335368330_);" d="M2737.226,1865.445l29.521,132.6
				c2.826,11.68-7.821,9.769-19.63,7.542c-19.338-3.646-44.262-11.155-52.594-26.203c-0.848-1.531-1.271-3.263-1.511-4.997
				l-12.682-91.948c-1.006-7.295,2.937-14.375,9.669-17.36l24.474-10.852C2723.895,1850.05,2734.801,1855.426,2737.226,1865.445z"/>
			<g>
				
					<linearGradient id="SVGID_00000145748713021686338010000000951585141186999707_" gradientUnits="userSpaceOnUse" x1="2659.147" y1="1876.2737" x2="2814.7297" y2="1669.9575">
					<stop  offset="0" style="stop-color:#C4421B"/>
					<stop  offset="1" style="stop-color:#5C0E16"/>
				</linearGradient>
				<path style="fill:url(#SVGID_00000145748713021686338010000000951585141186999707_);" d="M2702.589,1739.19
					c0,0-34.962,14.763-58.735,65.285s-6.02,73.849,16.279,77.051c22.299,3.202,55.647,2.715,90.921-29.922
					C2786.329,1818.968,2748.039,1721.691,2702.589,1739.19z"/>
				
					<linearGradient id="SVGID_00000177479464407197712500000018295413511650728104_" gradientUnits="userSpaceOnUse" x1="2945.738" y1="2178.5205" x2="2722.511" y2="1735.4479">
					<stop  offset="0" style="stop-color:#09005D"/>
					<stop  offset="1" style="stop-color:#1A0F91"/>
				</linearGradient>
				<path style="fill:url(#SVGID_00000177479464407197712500000018295413511650728104_);" d="M2727.343,1824.632
					c0,0,26.378-73.915-39.155-74.789l-15.42,10.778c0,0-24.044-40.981,15.42-60.543c39.465-19.562,85.654-3.404,102.448,49.766
					c16.794,53.169,19.662,88.761-8.279,114.199c-27.941,25.439-39.456-3.405-39.456-3.405s15.215-23.793,9.021-36.522
					c-6.194-12.73-20.481,2.633-20.481,2.633L2727.343,1824.632z"/>
				
					<linearGradient id="SVGID_00000107549846509685698500000017950244270827005839_" gradientUnits="userSpaceOnUse" x1="2694.7957" y1="1903.1561" x2="2850.3782" y2="1696.8401">
					<stop  offset="0" style="stop-color:#C4421B"/>
					<stop  offset="1" style="stop-color:#5C0E16"/>
				</linearGradient>
				<path style="fill:url(#SVGID_00000107549846509685698500000017950244270827005839_);" d="M2734.692,1832.865
					c0,0,13.337-38.076,31.128-22.912c17.792,15.163-14.46,35.171-27.086,41.652L2734.692,1832.865z"/>
			</g>
			
				<linearGradient id="SVGID_00000162341357006137017270000007488851775357774263_" gradientUnits="userSpaceOnUse" x1="2456.1516" y1="2075.8848" x2="2747.0227" y2="1751.191">
				<stop  offset="0" style="stop-color:#C4421B"/>
				<stop  offset="1" style="stop-color:#5C0E16"/>
			</linearGradient>
			<path style="fill:url(#SVGID_00000162341357006137017270000007488851775357774263_);" d="M2368.248,1777.866
				c0,0,77.696,269.91,391.008,244.542c20.045-1.623,37.652,13.231,39.211,33.28l0.843,10.834
				c2.258,29.044-21.444,53.528-50.539,52.056c-104.207-5.271-327.999-46.196-404.704-293.797L2368.248,1777.866z"/>
			
				<linearGradient id="SVGID_00000069393663227238191800000015500280878596001942_" gradientUnits="userSpaceOnUse" x1="2225.8162" y1="1869.5428" x2="2516.6885" y2="1544.8478">
				<stop  offset="0" style="stop-color:#C4421B"/>
				<stop  offset="1" style="stop-color:#5C0E16"/>
			</linearGradient>
			<path style="fill:url(#SVGID_00000069393663227238191800000015500280878596001942_);" d="M2344.067,1824.781
				c0,0-14.929-43.936-18.68-71.399s10.055-89.102,21.919-106.434c11.865-17.332,13.851,25.155,19.191,45.121
				c5.341,19.965-3.705,48.458-3.705,48.458l5.455,37.339L2344.067,1824.781z"/>
		</g>
	</g>
</g>
</svg>
